<?xml version="1.0" standalone="no"?>
<!DOCTYPE svg PUBLIC "-//W3C//DTD SVG 20010904//EN"
 "http://www.w3.org/TR/2001/REC-SVG-20010904/DTD/svg10.dtd">
<svg version="1.0" xmlns="http://www.w3.org/2000/svg"
 width="1512.000000pt" height="1128.000000pt" viewBox="0 0 1512.000000 1128.000000"
 preserveAspectRatio="xMidYMid meet">

<g transform="translate(0.000000,1128.000000) scale(0.100000,-0.100000)"
fill="#000000" stroke="none">
<path d="M6914 9998 c-16 -13 -34 -29 -41 -38 -10 -13 -14 -12 -35 8 -25 23
-53 29 -63 13 -3 -5 -1 -12 5 -16 13 -8 13 -65 0 -85 -8 -12 -10 -12 -16 3 -6
17 -7 17 -20 -1 -7 -11 -22 -22 -34 -25 -25 -6 -67 26 -73 56 -2 13 -5 5 -6
-17 0 -24 5 -46 15 -58 16 -17 15 -19 -12 -40 -89 -70 -119 -127 -119 -228 0
-100 32 -169 117 -254 173 -173 497 -228 708 -121 113 57 180 150 180 248 l0
59 29 -7 c29 -6 58 14 32 23 -6 2 -25 15 -41 28 -17 15 -31 20 -35 14 -14 -22
-110 0 -102 24 2 6 17 15 33 20 92 27 132 54 118 78 -5 7 -7 23 -6 35 2 14 -4
23 -17 28 -12 3 -21 13 -21 21 0 17 1 17 -72 -2 -67 -17 -84 -12 -50 16 39 32
21 137 -22 126 -12 -3 -27 -6 -33 -6 -7 0 -13 -9 -13 -21 0 -16 -4 -20 -17
-14 -10 3 -31 9 -48 12 -16 3 -36 10 -43 16 -10 8 -118 35 -144 37 -5 0 -8 -6
-8 -13 0 -17 -37 -39 -45 -27 -9 15 -60 -17 -102 -64 -28 -31 -34 -34 -28 -15
14 42 38 71 72 85 37 16 41 35 19 89 -18 41 -24 42 -62 13z m282 -263 c17 -13
16 -14 -21 -8 -50 7 -70 23 -29 23 17 0 39 -7 50 -15z m-482 -1 c30 -11 16
-21 -48 -32 -76 -14 -86 -15 -86 -3 0 25 96 50 134 35z m323 -39 c8 -24 -27
-56 -56 -53 -38 4 -41 43 -4 56 40 15 53 14 60 -3z m-436 -43 c-7 -2 -18 1
-23 6 -8 8 -4 9 13 5 13 -4 18 -8 10 -11z m255 3 c15 -39 -69 -101 -101 -75
-21 17 -19 33 8 57 38 35 84 43 93 18z m478 -38 c22 -16 18 -50 -7 -55 -26 -5
-67 25 -67 48 0 15 7 20 28 20 16 0 36 -6 46 -13z m-694 -116 c0 -16 2 -36 5
-43 7 -17 -41 -43 -50 -27 -4 5 -3 24 0 42 13 58 45 79 45 28z m275 -171 c0
-22 -29 -18 -33 3 -3 14 1 18 15 15 10 -2 18 -10 18 -18z"/>
<path d="M11940 9930 c0 -5 0 -13 1 -16 1 -11 -25 -24 -49 -24 -19 0 -21 -4
-16 -26 5 -21 3 -25 -11 -22 -10 2 -20 -3 -22 -9 -7 -19 48 -16 75 3 41 29 68
104 37 104 -8 0 -15 -4 -15 -10z"/>
<path d="M7982 9096 c130 -49 245 -126 374 -250 63 -60 114 -116 114 -123 0
-8 5 -11 10 -8 6 3 10 3 10 -2 1 -4 12 -21 26 -38 15 -16 23 -25 20 -18 -3 6
-8 24 -10 40 -17 136 -120 267 -268 340 -46 22 -92 44 -103 48 -52 19 -181 45
-218 45 -40 -1 -39 -2 45 -34z"/>
<path d="M2995 8925 c-57 -15 -138 -55 -150 -75 -3 -6 9 -2 27 9 96 55 278 73
408 42 87 -21 210 -83 270 -137 46 -41 51 -44 31 -16 -47 67 -162 136 -278
168 -85 22 -235 27 -308 9z"/>
<path d="M12451 8837 c3 -30 0 -44 -8 -44 -7 0 -13 4 -13 9 0 4 -4 8 -10 8
-14 0 -12 -28 3 -33 19 -6 -24 -128 -78 -219 -43 -73 -65 -95 -65 -65 -1 12
-17 -6 -55 -59 -46 -65 -137 -164 -146 -159 -5 4 -13 -4 -18 -18 -13 -34 -178
-170 -198 -163 -10 4 -14 2 -10 -8 4 -9 -10 -25 -36 -43 -64 -43 -71 -47 -63
-34 4 6 3 11 -1 11 -5 0 -9 9 -10 20 -2 21 21 28 32 10 9 -14 25 -2 25 18 0
10 11 26 25 36 14 10 25 23 25 27 0 8 -55 -12 -90 -32 -46 -28 -69 -31 -175
-24 -60 4 -136 9 -168 10 -67 3 -73 6 -57 34 7 15 8 27 0 40 -17 33 -12 38 56
65 48 20 75 25 98 20 27 -6 29 -5 18 9 -11 13 -10 17 8 27 12 7 32 9 45 6 19
-5 24 -2 27 15 5 33 33 47 55 27 17 -16 18 -15 18 15 0 22 5 32 20 36 11 3 20
13 21 21 1 8 4 26 8 40 6 20 5 22 -4 8 -5 -9 -34 -28 -63 -43 -28 -14 -59 -29
-67 -34 -25 -14 -93 -43 -122 -52 -26 -7 -28 -6 -28 22 0 33 -1 34 -38 15 -15
-7 -65 -26 -112 -41 -47 -15 -102 -36 -122 -47 -21 -10 -43 -16 -49 -12 -6 3
-14 2 -18 -3 -11 -15 -63 -53 -74 -53 -15 0 39 55 87 87 47 33 76 60 75 70 -2
15 13 53 22 53 9 0 31 71 24 79 -3 2 -8 -10 -11 -27 -8 -38 -17 -40 -32 -9 -6
12 -11 16 -11 10 -1 -7 -8 -13 -16 -13 -8 0 -15 -7 -15 -15 0 -18 -76 -91
-101 -98 -27 -7 -26 34 1 58 12 10 18 25 15 33 -3 9 1 12 14 7 16 -5 22 1 29
27 6 18 13 41 17 51 7 16 3 18 -26 15 -33 -3 -34 -2 -34 34 0 42 -11 56 -45
63 -30 6 -41 23 -37 58 2 18 -1 27 -10 27 -8 0 -11 -4 -8 -10 8 -12 -20 -65
-43 -82 -28 -20 -56 -103 -43 -127 13 -23 15 -52 3 -35 -4 5 -18 18 -32 27
-13 9 -19 17 -13 17 16 0 23 40 10 60 -8 14 -8 25 0 42 6 14 7 31 3 39 -4 8
-5 36 0 62 4 26 4 50 -1 52 -4 3 -5 14 -2 24 8 30 -13 33 -43 6 -27 -25 -41
-46 -66 -95 -6 -14 -20 -35 -31 -47 -11 -12 -20 -35 -22 -52 -1 -17 -9 -39
-17 -49 -14 -15 -31 -60 -67 -173 -6 -19 -11 -46 -11 -59 0 -21 -24 -49 -42
-50 -17 0 -4 143 17 193 5 12 3 17 -8 17 -8 0 -18 7 -21 16 -4 11 -13 14 -27
11 -26 -7 -49 1 -49 18 0 18 -68 25 -74 8 -3 -7 -2 -13 2 -13 4 0 8 -17 9 -38
l3 -37 -30 33 c-17 18 -28 38 -24 44 5 7 2 8 -6 3 -19 -11 -73 -13 -86 -3 -11
8 -54 -34 -54 -52 0 -11 36 -41 46 -39 14 4 148 -131 178 -178 31 -51 32 -53
6 -53 -11 0 -20 6 -20 13 0 19 -64 84 -78 79 -7 -2 -12 1 -12 7 0 13 -62 71
-76 71 -7 0 -26 16 -44 36 -17 20 -34 34 -37 30 -3 -3 -18 3 -33 14 -16 11
-35 20 -42 20 -8 0 -23 9 -32 19 -10 11 -23 17 -30 15 -7 -3 -19 2 -26 11 -20
25 -30 17 -27 -22 1 -25 8 -40 20 -45 9 -4 17 -16 17 -27 0 -13 8 -21 23 -23
18 -2 22 -9 22 -40 0 -20 5 -42 12 -49 6 -6 9 -17 7 -24 -3 -7 -1 -16 5 -20 8
-4 8 -12 1 -25 -10 -18 -12 -18 -54 6 -24 13 -50 22 -58 19 -9 -4 -30 6 -47
21 -27 22 -34 25 -42 13 -7 -11 -13 -10 -28 10 -12 15 -24 22 -35 18 -22 -9
-20 -34 4 -40 11 -3 23 -13 27 -24 5 -10 17 -18 28 -18 11 0 24 -9 30 -20 5
-11 19 -20 30 -20 14 0 20 -7 20 -24 0 -14 6 -26 13 -29 6 -2 12 -10 12 -18 0
-8 8 -14 17 -14 9 0 24 -7 34 -16 17 -16 12 -21 -86 -96 -111 -85 -147 -121
-139 -142 3 -7 37 -29 77 -49 72 -35 97 -35 97 -1 0 8 9 14 21 14 12 0 23 8
26 19 7 28 102 38 123 13 9 -10 27 -26 42 -36 23 -15 25 -20 15 -37 -7 -12
-23 -19 -42 -19 -17 0 -40 -6 -50 -14 -10 -7 -26 -11 -35 -9 -10 3 -20 -3 -24
-12 -4 -11 -12 -14 -25 -10 -12 4 -23 0 -28 -9 -4 -8 -15 -14 -23 -14 -8 1
-24 0 -34 0 -18 -2 -18 -3 -3 -20 17 -19 42 -22 63 -9 6 3 32 9 58 11 51 5
216 -43 368 -108 120 -51 112 -53 114 31 2 87 7 103 33 103 11 0 21 5 23 11 2
7 15 9 34 5 23 -5 30 -12 30 -29 -1 -14 5 -22 15 -22 9 0 24 -6 33 -14 14 -12
14 -15 -4 -39 -15 -19 -17 -28 -9 -38 9 -11 7 -14 -10 -14 -12 0 -25 -8 -28
-17 -4 -10 -15 -25 -25 -33 -10 -8 -15 -20 -10 -26 7 -12 279 -106 340 -119
28 -6 50 1 129 40 52 26 112 62 133 81 28 25 39 31 48 22 9 -9 12 -8 12 5 0
24 27 21 41 -4 9 -18 13 -19 20 -8 8 11 12 10 24 -5 8 -11 12 -22 7 -25 -14
-11 -62 -87 -62 -99 0 -7 -4 -12 -9 -12 -5 0 -11 -8 -15 -17 -3 -10 -11 -27
-18 -38 -63 -96 -100 -158 -108 -180 -5 -14 -14 -25 -20 -25 -6 0 -9 -4 -6 -9
3 -5 -3 -20 -14 -34 -11 -14 -20 -30 -20 -36 0 -6 -6 -11 -13 -11 -13 0 -17
-11 -18 -52 0 -10 -6 -18 -12 -18 -18 0 -50 -58 -44 -80 3 -11 -1 -21 -10 -24
-8 -3 -11 -10 -8 -16 3 -5 1 -10 -5 -10 -5 0 -18 -16 -27 -35 -10 -21 -22 -34
-30 -31 -7 3 -13 -1 -13 -10 0 -17 -58 -71 -103 -96 -43 -25 -91 -22 -162 8
-106 45 -429 176 -466 189 -31 11 -37 11 -35 0 3 -20 49 -54 115 -86 31 -15
71 -39 90 -53 19 -14 40 -26 47 -26 6 0 14 -7 17 -14 3 -8 25 -23 47 -34 23
-10 40 -23 38 -28 -2 -5 9 -10 25 -12 15 -2 27 -7 27 -11 0 -10 52 -7 69 3 9
6 12 5 7 -2 -4 -7 1 -10 14 -9 11 1 20 4 20 8 0 4 7 10 16 13 11 4 15 2 11 -8
-4 -10 -1 -13 9 -9 7 3 14 8 14 12 0 3 17 7 38 8 57 2 76 7 85 21 4 6 15 12
22 12 8 0 24 9 35 20 11 11 31 20 45 20 14 0 25 4 25 9 0 10 51 25 84 26 33 0
30 24 -7 59 l-35 33 111 89 112 89 59 121 58 121 88 6 c484 35 917 382 1051
844 46 161 60 345 38 498 -5 39 -11 81 -13 95 -7 50 -29 120 -38 120 -5 0 -8
6 -6 13 4 18 -24 97 -35 97 -5 0 -7 -20 -6 -43z m-1731 -377 c0 -5 -7 -10 -15
-10 -8 0 -15 5 -15 10 0 6 7 10 15 10 8 0 15 -4 15 -10z m40 -45 c0 -2 -9 -9
-20 -15 -12 -6 -20 -7 -20 -1 0 5 8 12 18 14 9 3 18 5 20 6 1 0 2 -1 2 -4z
m83 -39 c3 -8 3 -16 0 -19 -9 -10 -33 5 -33 19 0 18 26 18 33 0z m-61 -18 c8
-21 -2 -38 -22 -38 -28 0 -36 21 -15 37 23 16 32 16 37 1z m-667 -28 c3 -5 -1
-10 -9 -10 -8 0 -18 5 -21 10 -3 6 1 10 9 10 8 0 18 -4 21 -10z m672 -76 c-3
-3 -12 -4 -19 -1 -8 3 -5 6 6 6 11 1 17 -2 13 -5z m261 -160 c23 -1 46 -4 49
-8 3 -3 11 -2 17 4 20 16 36 -22 20 -45 -8 -10 -16 -16 -20 -13 -3 3 -16 -5
-30 -18 -21 -22 -32 -25 -96 -23 -40 1 -77 4 -83 8 -5 3 -18 6 -27 7 -36 3
-39 4 -33 13 3 5 1 12 -5 16 -24 15 -3 29 64 42 10 2 31 10 45 17 14 8 33 11
41 8 8 -3 34 -7 58 -8z m-495 -76 c16 -15 14 -18 -16 -35 -90 -53 -307 -107
-307 -76 0 7 3 13 8 13 8 0 32 49 32 67 0 7 9 13 20 13 13 0 20 7 20 20 0 15
7 20 25 20 14 0 28 7 31 15 4 10 14 13 30 9 13 -3 24 -2 24 4 0 13 112 -29
133 -50z m983 -26 c5 -5 29 -15 53 -22 26 -8 46 -22 49 -32 2 -10 8 -15 14
-12 5 3 15 0 23 -6 8 -7 26 -10 40 -8 14 3 30 -1 36 -8 6 -8 19 -14 28 -14 9
0 22 -9 29 -20 14 -23 16 -23 -98 -20 -41 1 -76 5 -77 8 -2 4 -25 5 -53 4 -30
-3 -50 0 -50 6 0 6 -8 12 -17 14 -14 3 -11 8 14 21 18 9 39 17 48 17 24 0 7
20 -31 36 -19 8 -34 21 -34 29 0 17 11 19 26 7z m161 -18 c-3 -3 -12 -4 -19
-1 -8 3 -5 6 6 6 11 1 17 -2 13 -5z m-68 -191 c-18 -20 -43 -45 -55 -54 -32
-27 -105 -126 -108 -146 -3 -15 -13 -18 -69 -18 -74 0 -100 13 -61 32 13 6 22
7 18 2 -3 -5 6 -8 20 -7 13 1 23 6 20 10 -2 4 20 25 50 48 30 22 64 55 76 73
31 44 98 97 123 97 19 0 17 -4 -14 -37z m-499 12 c0 -8 -9 -15 -19 -15 -11 0
-23 -5 -27 -11 -3 -6 1 -10 12 -9 35 4 42 0 42 -23 0 -31 -25 -45 -63 -36 -16
4 -23 7 -15 8 12 1 12 3 -2 11 -23 14 -48 2 -48 -23 0 -19 -1 -19 -18 -4 -10
10 -24 17 -30 17 -15 0 -42 29 -42 46 0 10 12 14 40 14 22 0 40 -4 40 -9 0
-12 54 14 70 34 16 20 60 20 60 0z m-220 -5 c0 -5 -7 -10 -15 -10 -8 0 -15 5
-15 10 0 6 7 10 15 10 8 0 15 -4 15 -10z"/>
<path d="M10305 8780 c3 -5 8 -10 11 -10 2 0 4 5 4 10 0 6 -5 10 -11 10 -5 0
-7 -4 -4 -10z"/>
<path d="M11036 8777 c3 -10 9 -15 12 -12 3 3 0 11 -7 18 -10 9 -11 8 -5 -6z"/>
<path d="M8934 8748 c14 -13 32 -40 38 -60 7 -20 17 -38 21 -40 4 -2 17 11 28
29 l21 32 -48 31 c-26 16 -56 30 -67 30 -16 0 -15 -3 7 -22z"/>
<path d="M7990 8745 c-17 -20 -5 -49 36 -85 27 -23 44 -30 67 -28 27 2 33 8
35 31 7 61 -102 126 -138 82z"/>
<path d="M10340 8716 c0 -8 5 -18 10 -21 6 -3 10 3 10 14 0 12 -4 21 -10 21
-5 0 -10 -6 -10 -14z"/>
<path d="M11161 8693 c0 -25 1 -26 9 -8 12 27 12 35 0 35 -5 0 -10 -12 -9 -27z"/>
<path d="M10662 8688 c-17 -17 -15 -23 13 -36 22 -10 25 -9 25 7 0 26 -23 44
-38 29z"/>
<path d="M12357 8650 c-8 -19 -29 -59 -46 -87 -23 -39 -28 -53 -17 -53 17 0
90 142 84 162 -3 7 -12 -2 -21 -22z"/>
<path d="M9960 8655 c0 -21 21 -57 43 -73 9 -7 17 -18 17 -23 0 -13 41 -48 56
-49 19 0 24 38 6 45 -9 3 -18 1 -20 -4 -7 -21 -21 -11 -24 17 -2 19 -9 28 -25
30 -15 2 -24 13 -28 32 -7 33 -25 51 -25 25z"/>
<path d="M11123 8636 c3 -8 2 -18 -3 -21 -5 -3 -4 -19 2 -36 11 -33 20 -28 31
21 5 19 1 29 -15 39 -18 11 -20 11 -15 -3z"/>
<path d="M10372 8625 c-11 -21 -3 -73 9 -53 6 10 11 9 23 -7 14 -19 15 -19 22
-1 7 19 -15 67 -34 74 -6 2 -15 -4 -20 -13z"/>
<path d="M10481 8624 c0 -11 3 -14 6 -6 3 7 2 16 -1 19 -3 4 -6 -2 -5 -13z"/>
<path d="M10550 8621 c0 -5 6 -24 14 -42 7 -19 12 -44 10 -56 -5 -28 22 -38
29 -11 3 12 10 17 17 13 8 -5 10 3 8 26 -2 26 -8 35 -25 37 -12 2 -25 12 -28
23 -6 19 -25 27 -25 10z"/>
<path d="M2848 8574 c16 -30 99 -102 144 -125 49 -25 170 -57 238 -62 112 -10
242 27 296 85 l29 30 -50 -31 c-70 -44 -135 -61 -234 -61 -155 0 -286 48 -384
138 -28 26 -45 37 -39 26z"/>
<path d="M3780 8538 c-7 -27 -16 -48 -21 -48 -5 0 -9 -5 -9 -11 0 -23 -55 -81
-113 -117 -74 -46 -107 -59 -167 -67 -24 -4 -48 -9 -53 -12 -8 -5 -145 -4
-319 2 l-78 2 35 -32 c19 -18 40 -35 47 -38 7 -2 9 -8 5 -13 -4 -5 -13 -2 -18
6 -9 12 -9 11 -4 -5 4 -11 8 -27 9 -35 2 -8 18 -23 37 -34 29 -17 52 -20 154
-20 168 1 292 38 379 115 38 33 52 29 69 -15 7 -17 9 -17 29 -4 13 8 33 35 46
59 21 40 23 53 18 146 -3 56 -12 116 -19 135 l-15 33 -12 -47z m-640 -313 c0
-8 -4 -15 -10 -15 -5 0 -10 7 -10 15 0 8 5 15 10 15 6 0 10 -7 10 -15z"/>
<path d="M10640 8555 c0 -8 4 -15 9 -15 5 0 11 7 15 15 3 9 0 15 -9 15 -8 0
-15 -7 -15 -15z"/>
<path d="M7578 8535 c15 -28 89 -105 142 -147 65 -51 194 -117 278 -141 58
-16 272 -21 272 -6 0 7 -3 10 -6 7 -13 -14 -227 49 -303 89 -25 13 -62 23 -85
23 -23 0 -48 6 -55 13 -11 10 -13 9 -7 -3 6 -12 5 -11 -6 1 -7 9 -21 15 -31
13 -21 -3 -105 60 -166 125 -24 25 -39 37 -33 26z m347 -195 c-3 -5 -10 -10
-16 -10 -5 0 -9 5 -9 10 0 6 7 10 16 10 8 0 12 -4 9 -10z"/>
<path d="M11780 8370 c0 -6 7 -10 15 -10 8 0 15 2 15 4 0 2 -7 6 -15 10 -8 3
-15 1 -15 -4z"/>
<path d="M6233 8353 c-7 -2 -13 -14 -13 -25 0 -14 -6 -19 -22 -18 -38 3 -50 1
-43 -10 9 -14 -14 -52 -27 -44 -7 4 -8 3 -4 -5 4 -6 12 -9 17 -6 5 4 9 2 9 -4
0 -5 -9 -12 -19 -16 -13 -4 -17 -12 -14 -25 3 -11 1 -20 -5 -20 -6 0 -8 -10
-5 -22 4 -19 3 -21 -7 -8 -10 13 -11 12 -6 -3 3 -10 6 -20 6 -23 0 -2 7 -1 16
3 14 5 15 3 5 -15 -6 -11 -16 -23 -23 -25 -9 -4 -8 -6 3 -6 8 -1 21 5 29 12
12 10 12 9 0 -6 -11 -15 -11 -20 -1 -26 10 -6 9 -12 -4 -24 -9 -9 -14 -21 -10
-26 3 -5 -3 -12 -12 -15 -10 -3 -24 -15 -30 -25 -11 -17 -9 -20 17 -26 33 -7
39 -19 15 -29 -20 -7 -19 -35 1 -43 15 -6 15 -7 -1 -19 -9 -7 -14 -18 -10 -24
5 -8 10 -6 18 5 10 12 12 7 12 -27 0 -33 4 -43 16 -42 13 1 16 -7 14 -42 -2
-24 1 -42 5 -39 13 8 33 -24 27 -45 -3 -11 -1 -20 4 -20 18 0 9 -18 -12 -23
-12 -3 -18 -10 -14 -16 3 -7 0 -8 -9 -5 -23 9 -49 -3 -39 -18 4 -7 8 -26 9
-43 1 -16 6 -43 13 -58 6 -16 11 -34 11 -42 0 -7 8 -16 17 -19 13 -5 14 -9 5
-15 -9 -5 -8 -13 4 -30 12 -17 19 -20 24 -11 6 10 13 9 31 -4 15 -10 18 -16 9
-16 -9 -1 1 -15 24 -35 21 -19 43 -32 49 -28 6 3 7 1 3 -5 -4 -7 -2 -12 3 -12
6 0 11 -7 11 -16 0 -8 5 -12 11 -8 6 3 15 1 19 -6 6 -9 12 -9 29 -1 11 7 21 8
21 2 0 -5 -8 -12 -17 -15 -24 -10 -5 -23 47 -33 34 -7 44 -13 42 -26 -2 -10 4
-17 13 -17 9 0 23 -7 31 -15 9 -8 13 -15 9 -15 -15 0 18 -40 33 -40 13 -1 12
-3 -5 -13 -21 -12 -22 -14 -7 -35 8 -12 23 -22 32 -22 14 0 14 -2 3 -9 -11 -7
-10 -13 8 -32 13 -14 19 -30 15 -41 -5 -17 9 -24 39 -19 17 3 5 -17 -14 -22
-21 -6 -21 -6 -2 -31 10 -14 24 -26 32 -26 9 0 12 -8 8 -26 -3 -16 0 -28 9
-31 8 -3 14 -17 14 -32 1 -30 23 -64 35 -53 4 4 4 -3 1 -15 -5 -14 -3 -23 3
-23 6 0 11 7 11 15 0 8 5 15 11 15 5 0 8 -3 6 -7 -2 -5 4 -16 15 -25 10 -10
18 -15 19 -10 0 4 5 -4 10 -17 6 -16 15 -22 27 -19 15 4 19 -2 20 -31 4 -54
11 -71 28 -64 12 4 14 0 9 -19 -6 -21 -2 -26 26 -34 18 -5 34 -15 37 -23 3 -8
0 -11 -6 -7 -6 3 -13 2 -17 -4 -3 -5 0 -10 7 -10 18 0 40 -57 24 -64 -6 -2 6
-3 27 -2 21 1 43 9 47 17 6 9 9 3 7 -21 -1 -25 2 -34 11 -32 9 2 11 -4 7 -18
-4 -11 -3 -20 2 -19 18 4 43 -14 43 -32 0 -10 5 -19 10 -19 12 0 12 2 0 35 -5
14 -14 24 -19 20 -5 -3 -13 0 -16 6 -11 17 3 23 21 8 13 -11 18 -11 21 -1 7
20 22 14 16 -8 -4 -14 6 -31 31 -56 20 -20 36 -42 36 -50 0 -8 4 -14 9 -14 5
0 12 -8 15 -18 4 -13 16 -19 36 -19 32 0 40 14 15 23 -8 4 -15 10 -15 15 0 19
29 -5 39 -32 5 -16 12 -29 15 -29 3 0 3 7 0 15 -7 18 -1 18 44 6 39 -12 63 -5
55 15 -4 10 0 13 13 8 18 -5 18 -5 0 10 -11 9 -14 16 -7 16 29 0 -3 252 -74
580 -9 41 -18 84 -21 94 -14 72 -88 265 -155 402 -52 110 -121 231 -139 244
-3 3 -9 13 -13 23 -7 20 -57 24 -57 5 0 -7 -5 -5 -11 5 -8 14 -14 15 -24 7
-11 -9 -17 -4 -30 24 -9 19 -23 37 -31 40 -9 3 -13 10 -9 16 3 5 1 18 -4 29
-8 13 -8 20 0 23 13 4 -6 59 -24 70 -7 4 -12 13 -12 20 -1 7 -7 12 -15 10 -7
-2 -17 3 -21 10 -12 18 -11 30 1 23 6 -3 10 -1 10 5 0 6 4 9 9 6 5 -4 4 5 -2
18 -7 14 -14 24 -17 24 -22 -2 -31 4 -27 16 3 8 -18 46 -47 86 -57 76 -97 112
-104 92 -2 -8 -10 -8 -27 0 -18 8 -21 13 -12 23 7 7 17 10 22 7 6 -3 3 5 -6
18 -10 14 -26 25 -38 24 -21 -1 -29 12 -11 18 6 2 1 9 -10 15 -16 11 -18 10
-14 -2 4 -8 1 -15 -5 -15 -6 0 -11 9 -11 20 0 13 -7 20 -20 20 -11 0 -20 5
-20 11 0 7 9 9 23 6 22 -6 22 -6 2 9 -11 8 -29 13 -39 10 -14 -4 -16 -2 -7 7
14 14 15 30 1 22 -5 -3 -10 1 -10 9 0 9 -11 18 -25 22 -14 3 -23 10 -20 14 3
5 1 11 -5 15 -6 4 -8 10 -5 15 3 4 -4 6 -15 3 -11 -3 -17 -9 -14 -14 3 -5 0
-9 -6 -9 -6 0 -10 10 -8 23 3 20 -1 22 -48 21 l-52 0 9 28 c4 15 7 28 6 27 -1
0 -8 -3 -14 -6z m17 -74 c0 -5 6 -7 13 -3 8 5 8 2 -2 -9 -16 -20 -32 -22 -28
-4 2 12 -4 13 -38 2 -14 -4 -12 -2 5 9 29 18 50 20 50 5z m117 -31 c-3 -8 -6
-5 -6 6 -1 11 2 17 5 13 3 -3 4 -12 1 -19z m-192 -28 c3 -5 1 -10 -4 -10 -6 0
-11 5 -11 10 0 6 2 10 4 10 3 0 8 -4 11 -10z m235 -2 c0 -6 -3 -8 -6 -5 -4 3
-15 2 -25 -4 -15 -7 -17 -6 -13 6 7 18 44 21 44 3z m-260 -2 c0 -3 -4 -8 -10
-11 -5 -3 -10 -1 -10 4 0 6 5 11 10 11 6 0 10 -2 10 -4z m30 -36 c0 -5 -4 -10
-10 -10 -5 0 -10 5 -10 10 0 6 5 10 10 10 6 0 10 -4 10 -10z m385 -120 c3 -5
2 -10 -4 -10 -5 0 -13 5 -16 10 -3 6 -2 10 4 10 5 0 13 -4 16 -10z m-390 -9
c3 -5 1 -12 -4 -15 -5 -3 -11 1 -15 9 -6 16 9 21 19 6z m456 -74 c-1 -12 -15
-9 -19 4 -3 6 1 10 8 8 6 -3 11 -8 11 -12z m61 -89 c-7 -7 -12 -8 -12 -2 0 14
12 26 19 19 2 -3 -1 -11 -7 -17z m-552 2 c0 -5 -4 -10 -10 -10 -5 0 -10 5 -10
10 0 6 5 10 10 10 6 0 10 -4 10 -10z m600 -75 c11 -13 10 -14 -4 -9 -9 3 -16
10 -16 15 0 13 6 11 20 -6z m95 -135 c3 -5 1 -10 -4 -10 -6 0 -11 5 -11 10 0
6 2 10 4 10 3 0 8 -4 11 -10z m-270 -9 c3 -5 1 -12 -5 -16 -5 -3 -10 1 -10 9
0 18 6 21 15 7z m2 -63 c-3 -8 -6 -5 -6 6 -1 11 2 17 5 13 3 -3 4 -12 1 -19z
m54 -117 c-1 -2 3 -7 10 -12 8 -4 10 -12 5 -16 -11 -12 -46 35 -39 54 5 13 7
13 16 -3 6 -11 10 -21 8 -23z m349 -31 c0 -5 -10 -10 -22 -9 -22 0 -22 1 -3 9
11 5 21 9 23 9 1 1 2 -3 2 -9z m-300 -26 c0 -8 4 -14 8 -14 5 0 17 -8 28 -17
25 -23 88 -46 92 -34 2 6 9 8 17 5 7 -3 16 0 20 6 5 8 11 8 21 -1 11 -9 15 -8
20 5 3 9 10 13 15 10 5 -3 4 -14 -2 -25 -6 -12 -8 -23 -5 -27 3 -3 6 0 6 6 0
7 9 12 20 12 11 0 20 -4 20 -9 0 -5 9 -13 21 -16 11 -4 18 -13 16 -20 -3 -7
-1 -17 3 -21 5 -5 5 -27 -2 -51 -9 -37 -14 -43 -44 -49 -44 -8 -102 22 -167
84 -66 64 -132 163 -115 173 15 10 28 2 28 -17z m125 -34 c-3 -5 -11 -10 -16
-10 -6 0 -7 5 -4 10 3 6 11 10 16 10 6 0 7 -4 4 -10z m-150 -460 c3 -5 1 -10
-4 -10 -6 0 -11 5 -11 10 0 6 2 10 4 10 3 0 8 -4 11 -10z m105 -240 c0 -5 -4
-10 -10 -10 -5 0 -10 5 -10 10 0 6 5 10 10 10 6 0 10 -4 10 -10z m34 -25 c3
-8 1 -15 -4 -15 -6 0 -10 7 -10 15 0 8 2 15 4 15 2 0 6 -7 10 -15z m153 -227
c-3 -8 -6 -5 -6 6 -1 11 2 17 5 13 3 -3 4 -12 1 -19z m83 -78 c0 -5 -10 -10
-22 -9 -22 0 -22 1 -3 9 11 5 21 9 23 9 1 1 2 -3 2 -9z m69 -41 c-15 -9 -32
-2 -24 11 3 5 13 6 21 3 12 -4 13 -8 3 -14z m31 -44 c0 -8 -4 -15 -10 -15 -5
0 -10 7 -10 15 0 8 5 15 10 15 6 0 10 -7 10 -15z m150 -125 c0 -5 -4 -10 -10
-10 -5 0 -10 5 -10 10 0 6 5 10 10 10 6 0 10 -4 10 -10z m75 -29 c3 -5 0 -13
-6 -17 -7 -4 -9 -3 -5 4 3 5 0 13 -6 15 -9 4 -10 6 -1 6 6 1 14 -3 18 -8z m52
3 c-3 -3 -12 -4 -19 -1 -8 3 -5 6 6 6 11 1 17 -2 13 -5z"/>
<path d="M6133 8318 c-6 -7 -10 -21 -10 -31 0 -24 20 -4 22 23 2 23 1 24 -12
8z"/>
<path d="M6265 8320 c-8 -13 5 -13 25 0 13 8 13 10 -2 10 -9 0 -20 -4 -23 -10z"/>
<path d="M6515 8260 c-8 -13 52 -114 124 -208 189 -248 442 -454 742 -604 110
-55 145 -78 184 -120 106 -117 191 -202 203 -204 18 -3 14 14 -8 33 -11 10
-20 24 -20 33 0 11 -2 12 -8 2 -6 -9 -12 -6 -20 13 -13 29 -6 32 26 9 12 -8
22 -11 22 -5 0 5 -5 11 -10 13 -6 2 -12 13 -13 25 -2 29 -28 39 -44 17 -12
-16 -13 -16 -13 -1 0 9 8 21 18 26 12 8 13 10 3 11 -8 0 -12 2 -10 5 5 5 180
-39 197 -49 6 -4 9 -13 5 -21 -4 -12 5 -15 45 -15 28 0 54 5 57 10 4 7 29 7
68 3 34 -5 95 -8 135 -8 39 0 72 -4 72 -8 0 -11 280 -6 340 5 25 5 63 11 85
14 45 6 189 41 220 53 70 28 116 56 158 95 43 38 47 45 32 54 -15 8 -14 10 9
16 14 3 26 11 26 16 0 6 9 10 20 10 11 0 20 3 20 8 0 4 12 12 26 19 22 10 25
10 20 -3 -3 -9 -1 -12 4 -9 6 3 10 1 10 -4 0 -57 167 113 240 244 12 22 27 47
33 55 5 8 -20 -16 -56 -55 -37 -38 -67 -76 -67 -82 0 -7 -5 -13 -11 -13 -7 0
-30 -15 -53 -33 -86 -70 -185 -126 -281 -159 -33 -11 -67 -26 -75 -33 -8 -7
-22 -13 -30 -13 -24 -1 -57 -10 -79 -22 -12 -6 -21 -8 -21 -4 0 3 -6 2 -12 -3
-7 -6 -20 -11 -28 -11 -74 -5 -175 -25 -182 -36 -5 -8 -8 -7 -8 2 0 6 -12 12
-26 12 -14 0 -23 -4 -19 -10 6 -10 -66 -6 -88 5 -7 4 -4 0 6 -8 12 -10 14 -17
7 -22 -5 -3 -8 -11 -5 -16 4 -5 2 -9 -3 -9 -6 0 -13 7 -16 16 -4 10 -2 13 6 8
7 -5 8 -3 3 5 -5 9 -10 10 -18 2 -16 -16 -27 -13 -21 4 4 8 1 15 -5 15 -12 0
-14 -11 -5 -34 3 -9 10 -13 15 -10 5 3 9 1 9 -4 0 -9 -52 -7 -102 3 -15 2 -16
0 -7 -16 11 -21 9 -22 -15 -13 -9 3 -14 9 -12 13 3 4 -4 7 -14 7 -10 0 -18 -4
-17 -10 1 -5 -10 -12 -25 -17 -16 -4 -28 -3 -28 2 0 5 10 10 23 10 18 1 18 2
4 6 -10 3 -28 -4 -39 -14 -14 -12 -19 -13 -13 -3 7 13 6 13 -7 2 -9 -7 -19 -9
-22 -4 -3 5 -21 7 -40 6 -20 -2 -55 6 -78 16 -24 11 -37 20 -30 20 7 0 11 4 7
10 -3 5 -12 7 -19 4 -7 -3 -19 2 -26 11 -7 8 -25 15 -41 15 -17 0 -28 5 -26
12 1 7 -8 17 -20 23 -13 5 -23 15 -23 20 0 6 -17 17 -37 24 -21 7 -72 26 -113
43 -41 17 -84 34 -95 38 -94 35 -323 159 -431 232 -39 26 -74 48 -78 48 -4 0
-15 9 -24 21 -10 11 -25 21 -34 23 -9 1 -28 13 -41 27 -37 37 -85 79 -91 79
-10 0 -221 209 -256 254 -19 25 -41 45 -47 46 -7 0 -13 7 -13 16 0 11 -5 14
-16 10 -9 -3 -28 -9 -42 -12 -21 -4 -24 -3 -12 5 11 8 12 11 2 11 -7 0 -10 5
-7 10 3 6 -1 10 -9 10 -8 0 -18 -4 -21 -10z m130 -60 c3 -5 1 -10 -4 -10 -6 0
-11 5 -11 10 0 6 2 10 4 10 3 0 8 -4 11 -10z m2615 -690 c0 -5 -4 -10 -10 -10
-5 0 -10 5 -10 10 0 6 5 10 10 10 6 0 10 -4 10 -10z m-1580 -214 c0 -2 -7 -7
-16 -10 -8 -3 -12 -2 -9 4 6 10 25 14 25 6z"/>
<path d="M8740 8255 c0 -8 -7 -15 -15 -15 -8 0 -15 -5 -15 -11 0 -6 -6 -9 -14
-6 -8 3 -17 -1 -20 -9 -6 -17 12 -18 49 -4 14 5 24 14 20 19 -3 5 -1 12 5 16
13 8 13 25 0 25 -5 0 -10 -7 -10 -15z"/>
<path d="M2960 8250 c0 -5 5 -10 11 -10 5 0 7 5 4 10 -3 6 -8 10 -11 10 -2 0
-4 -4 -4 -10z"/>
<path d="M6085 8240 c2 -27 10 -33 12 -10 1 11 -2 22 -6 24 -4 3 -7 -4 -6 -14z"/>
<path d="M11740 8250 c0 -5 5 -10 10 -10 6 0 10 5 10 10 0 6 -4 10 -10 10 -5
0 -10 -4 -10 -10z"/>
<path d="M11985 8220 c-3 -5 -1 -10 4 -10 6 0 11 5 11 10 0 6 -2 10 -4 10 -3
0 -8 -4 -11 -10z"/>
<path d="M11640 8204 c0 -8 5 -12 10 -9 6 3 10 10 10 16 0 5 -4 9 -10 9 -5 0
-10 -7 -10 -16z"/>
<path d="M6066 8191 c-4 -5 1 -8 9 -7 21 3 31 16 12 16 -9 0 -18 -4 -21 -9z"/>
<path d="M11870 8190 c0 -6 7 -10 15 -10 8 0 15 2 15 4 0 2 -7 6 -15 10 -8 3
-15 1 -15 -4z"/>
<path d="M6075 8051 c-2 -4 3 -14 10 -24 12 -16 13 -16 17 6 3 16 0 24 -9 24
-8 0 -16 -3 -18 -6z"/>
<path d="M6065 8010 c-3 -5 -1 -10 4 -10 6 0 11 5 11 10 0 6 -2 10 -4 10 -3 0
-8 -4 -11 -10z"/>
<path d="M6845 7720 c3 -5 8 -10 11 -10 2 0 4 5 4 10 0 6 -5 10 -11 10 -5 0
-7 -4 -4 -10z"/>
<path d="M10590 7465 c-14 -16 -10 -18 14 -9 9 3 16 10 16 15 0 14 -16 11 -30
-6z"/>
<path d="M8170 7280 c0 -5 4 -10 9 -10 6 0 13 5 16 10 3 6 -1 10 -9 10 -9 0
-16 -4 -16 -10z"/>
<path d="M8130 7276 c0 -2 7 -7 16 -10 8 -3 12 -2 9 4 -6 10 -25 14 -25 6z"/>
<path d="M12664 7021 c3 -5 -4 -11 -16 -15 -22 -5 -21 -7 12 -30 19 -14 40
-29 45 -33 6 -4 28 -21 50 -38 22 -16 45 -35 50 -43 6 -7 17 -14 25 -15 8 -2
20 -6 27 -10 16 -10 24 5 12 23 -13 22 -11 31 8 28 19 -3 27 30 12 54 -6 9 -9
7 -9 -9 0 -12 -4 -24 -9 -27 -11 -7 -32 17 -35 41 -2 10 -10 17 -19 17 -10 -1
-13 4 -9 15 5 13 3 14 -10 3 -12 -10 -18 -9 -28 3 -7 8 -21 15 -31 15 -11 0
-19 4 -19 10 0 5 -6 7 -14 4 -8 -3 -17 -1 -21 5 -3 6 -11 11 -16 11 -6 0 -8
-4 -5 -9z"/>
<path d="M12850 6930 c6 -11 12 -20 14 -20 2 0 2 9 -1 20 -3 11 -9 20 -15 20
-5 0 -4 -9 2 -20z"/>
<path d="M12630 6890 c-13 -8 -12 -10 3 -10 9 0 17 5 17 10 0 12 -1 12 -20 0z"/>
<path d="M12665 6863 c-4 -13 -12 -20 -19 -17 -6 3 -3 -1 6 -9 10 -8 15 -17
11 -20 -3 -4 1 -7 10 -7 10 0 17 7 17 15 0 8 12 21 28 29 l27 15 -32 -3 c-18
-2 -34 2 -37 8 -3 6 -8 1 -11 -11z"/>
<path d="M12885 6831 c-3 -5 -1 -12 5 -16 5 -3 10 1 10 9 0 18 -6 21 -15 7z"/>
<path d="M6770 6585 c7 -8 15 -13 19 -11 4 3 7 -7 6 -21 0 -14 5 -28 12 -30
18 -7 8 49 -13 64 -24 18 -39 17 -24 -2z"/>
<path d="M7010 6290 c0 -5 5 -10 10 -10 6 0 10 5 10 10 0 6 -4 10 -10 10 -5 0
-10 -4 -10 -10z"/>
<path d="M5773 6055 c7 -7 14 -10 17 -6 3 3 9 9 13 12 4 4 -3 7 -17 7 -19 0
-22 -3 -13 -13z"/>
<path d="M7368 6063 c7 -3 16 -2 19 1 4 3 -2 6 -13 5 -11 0 -14 -3 -6 -6z"/>
<path d="M7440 6060 c-9 -6 -10 -10 -3 -10 6 0 15 5 18 10 8 12 4 12 -15 0z"/>
<path d="M6010 6029 c0 -5 5 -7 10 -4 6 3 10 8 10 11 0 2 -4 4 -10 4 -5 0 -10
-5 -10 -11z"/>
<path d="M5910 6011 c-12 -24 -13 -34 -1 -27 9 6 22 46 15 46 -2 0 -8 -9 -14
-19z"/>
<path d="M5790 6010 c0 -5 7 -7 15 -4 8 4 15 8 15 10 0 2 -7 4 -15 4 -8 0 -15
-4 -15 -10z"/>
<path d="M5418 5993 c7 -3 16 -2 19 1 4 3 -2 6 -13 5 -11 0 -14 -3 -6 -6z"/>
<path d="M5863 5993 c4 -3 1 -13 -6 -21 -10 -13 -9 -14 11 -3 22 12 22 31 0
31 -6 0 -8 -3 -5 -7z"/>
<path d="M5625 5980 c-3 -5 -1 -10 4 -10 6 0 11 5 11 10 0 6 -2 10 -4 10 -3 0
-8 -4 -11 -10z"/>
<path d="M5938 5983 c-17 -4 -33 -32 -23 -41 3 -3 5 0 5 6 0 7 7 12 15 12 23
0 18 -16 -10 -28 -15 -7 -27 -8 -30 -2 -4 6 -13 10 -21 10 -8 0 -13 -3 -11 -7
3 -5 -1 -14 -9 -21 -11 -10 -14 -10 -14 0 -1 9 -4 8 -13 -3 -7 -9 -23 -19 -36
-24 -16 -5 -20 -10 -13 -17 12 -12 5 -38 -10 -38 -5 0 -6 5 -2 11 4 7 1 10 -7
7 -8 -3 -16 -13 -17 -23 -3 -12 0 -15 9 -10 7 5 10 4 5 -3 -6 -10 -51 -3 -76
13 -13 8 -13 25 1 25 5 0 8 -4 5 -9 -6 -9 23 -25 31 -17 9 9 -9 46 -19 40 -6
-4 -13 -2 -17 5 -4 6 -13 -4 -23 -24 -15 -34 -15 -35 8 -35 12 0 25 -4 29 -9
8 -15 -15 -25 -28 -12 -15 15 -27 14 -27 -4 0 -8 5 -15 10 -15 25 0 7 -16 -20
-18 -33 -3 -35 0 -19 31 10 21 9 21 -10 -2 -12 -13 -21 -18 -21 -12 0 6 -8 8
-17 5 -15 -5 -15 -4 -3 4 8 6 18 8 22 6 4 -3 8 2 8 10 0 13 -5 14 -27 5 -18
-7 -30 -6 -37 1 -7 7 -5 10 7 10 9 0 17 5 17 11 0 5 -4 8 -9 5 -5 -4 -7 3 -4
14 6 21 37 27 48 10 4 -6 12 -8 18 -4 7 3 4 -1 -6 -9 -16 -14 -16 -15 -1 -21
9 -4 19 -4 22 -1 3 3 0 5 -7 5 -7 0 -10 4 -6 9 3 6 14 8 25 6 12 -2 18 0 15 6
-4 5 -11 7 -16 4 -5 -4 -9 1 -9 10 0 10 5 13 13 9 7 -5 6 0 -3 11 -8 10 -10
16 -3 12 23 -14 21 8 -3 26 -13 10 -24 13 -24 7 0 -5 5 -10 10 -10 15 0 12
-16 -5 -33 -14 -15 -50 -12 -99 9 -14 5 -17 4 -12 -4 4 -7 15 -12 24 -13 9 0
12 -3 6 -5 -6 -3 -9 -15 -7 -28 3 -13 0 -27 -6 -30 -7 -4 -11 1 -11 13 0 13
-6 21 -17 21 -15 0 -16 -2 -3 -10 13 -8 13 -10 -2 -10 -9 0 -23 -7 -31 -15
-13 -13 -17 -13 -27 0 -13 15 -30 12 -30 -6 0 -5 8 -9 18 -7 12 2 17 -4 17
-19 0 -11 4 -25 9 -30 5 -5 7 -1 3 10 -4 11 -1 17 8 18 23 2 29 4 42 12 15 9
43 -2 43 -18 0 -6 -9 -22 -20 -35 -11 -13 -20 -27 -20 -33 0 -5 -7 -4 -15 3
-9 8 -13 22 -9 39 4 22 4 23 -6 8 -8 -12 -18 -16 -31 -12 -15 5 -19 1 -19 -17
-1 -21 -2 -20 -15 7 -10 22 -14 25 -14 11 -1 -18 -2 -18 -19 -3 -10 10 -22 17
-25 17 -12 0 -8 -28 5 -36 7 -4 8 -3 4 4 -4 7 -2 12 3 12 6 0 11 -9 11 -20 0
-11 7 -20 16 -20 9 0 12 -5 8 -12 -6 -10 -4 -10 8 0 13 10 17 10 21 -3 4 -9
-2 -19 -13 -25 -17 -9 -22 -7 -32 15 -11 24 -38 35 -38 15 0 -6 -9 -6 -26 0
-16 7 -23 7 -19 0 3 -6 -1 -10 -9 -10 -9 0 -16 -5 -16 -11 0 -5 -4 -8 -10 -4
-5 3 -6 13 -3 23 6 15 5 15 -10 3 -24 -19 -64 -22 -71 -5 -6 15 -36 8 -36 -8
0 -7 4 -7 13 0 10 8 13 6 13 -8 0 -11 -2 -17 -5 -15 -2 3 -11 -1 -19 -8 -8 -6
-31 -13 -49 -13 -47 -2 -58 -15 -33 -42 12 -12 18 -22 15 -22 -4 0 7 -18 24
-39 17 -21 31 -44 31 -49 0 -6 6 -15 13 -19 7 -4 21 -21 30 -36 29 -45 59 -77
74 -77 7 0 13 -6 13 -14 0 -30 -20 -25 -47 11 -15 21 -52 63 -81 93 l-53 55
22 -50 c11 -27 26 -61 32 -75 6 -14 11 -27 11 -30 4 -20 103 -230 118 -249 24
-31 23 -51 -2 -44 -14 4 -20 14 -20 34 0 26 -32 69 -52 69 -4 0 -8 9 -8 21 0
25 -18 61 -36 72 -8 4 -14 14 -14 22 0 18 -109 229 -121 233 -5 2 -9 12 -9 23
0 10 -7 19 -15 19 -9 0 -15 9 -15 24 0 22 -26 43 -38 31 -3 -2 3 -7 12 -11 9
-3 16 -10 16 -16 0 -5 -11 -1 -24 9 -16 12 -20 20 -12 26 8 5 7 10 -4 17 -11
7 -16 5 -18 -5 -3 -12 -8 -12 -30 3 -28 18 -26 6 6 -31 12 -13 13 -20 4 -29
-8 -8 -13 -7 -18 8 -4 10 -12 22 -17 25 -12 8 -57 -30 -57 -48 0 -18 -21 -16
-49 3 -28 20 -49 6 -32 -23 9 -16 10 -16 11 -1 0 12 5 15 16 11 8 -3 13 -12
10 -20 -3 -8 -1 -11 4 -8 6 4 22 -3 36 -14 15 -12 22 -21 17 -21 -5 0 -14 5
-20 11 -8 8 -18 6 -37 -6 -14 -10 -26 -13 -26 -7 0 6 5 12 12 14 7 3 4 7 -7
12 -11 4 -16 4 -13 0 4 -4 3 -15 -3 -25 -9 -18 -10 -18 -29 1 -11 11 -24 20
-30 20 -5 0 -12 11 -16 25 -3 14 -12 25 -20 25 -22 0 -16 -28 10 -51 14 -12
22 -28 19 -35 -3 -8 1 -14 11 -14 9 0 16 -5 16 -11 0 -7 -9 -5 -24 4 -21 14
-25 14 -30 2 -6 -16 9 -29 23 -20 5 3 13 1 16 -5 4 -6 3 -10 -2 -9 -19 3 -34
-2 -28 -10 3 -5 0 -13 -6 -17 -7 -4 -9 -3 -6 3 4 6 -15 9 -47 9 -31 -1 -52 -5
-50 -11 8 -23 -13 -37 -45 -30 -17 4 -29 11 -25 16 3 5 15 7 27 4 20 -5 20 -5
4 5 -11 7 -15 16 -10 24 4 6 0 3 -9 -7 -13 -13 -18 -15 -18 -6 0 11 -2 11 -10
-1 -6 -10 -10 -11 -10 -2 0 15 -46 16 -56 0 -5 -8 0 -9 16 -5 16 4 23 1 27
-14 3 -10 9 -19 15 -19 14 0 -9 -37 -28 -44 -20 -8 -41 4 -24 14 8 5 2 10 -16
14 -17 5 -30 3 -32 -3 -2 -5 -11 -7 -20 -4 -13 4 -12 2 3 -10 27 -21 14 -31
-18 -14 -15 8 -24 17 -20 20 3 4 1 7 -5 7 -15 0 -15 -13 -1 -27 8 -8 2 -10
-23 -8 -18 1 -33 7 -33 13 0 16 -12 25 -24 17 -7 -4 -2 -16 14 -32 13 -15 22
-30 19 -35 -3 -4 -1 -8 4 -8 5 0 9 -7 9 -14 0 -11 -5 -12 -18 -5 -24 12 -27
12 -33 -8 -2 -10 -2 0 0 22 4 30 3 36 -5 25 -6 -8 -11 -23 -11 -33 0 -11 -5
-17 -12 -14 -7 2 -12 12 -10 22 2 10 -1 14 -7 10 -6 -3 -14 1 -18 11 -6 16 -7
16 -19 -1 -10 -14 -17 -15 -27 -7 -15 13 -37 -2 -37 -26 0 -11 -3 -11 -15 2
-20 19 -19 27 3 20 15 -5 15 -4 -1 6 -15 10 -16 14 -5 28 12 15 11 16 -4 3
-16 -12 -18 -11 -19 5 0 13 -5 9 -16 -13 -16 -32 -33 -44 -33 -23 0 6 4 10 10
10 5 0 7 6 4 14 -4 12 -10 10 -27 -7 l-21 -21 -7 24 c-5 21 -7 22 -14 8 -4 -9
-4 -22 0 -28 4 -7 -2 -6 -14 2 -12 7 -24 21 -27 30 -6 20 -24 25 -24 7 0 -8
-5 -8 -15 1 -13 11 -15 9 -13 -10 2 -15 -3 -24 -14 -25 -11 -2 -18 3 -18 12 0
12 -3 13 -14 4 -11 -9 -15 -9 -20 1 -3 7 -4 1 -2 -14 1 -15 -1 -25 -5 -22 -5
3 -9 -3 -9 -13 0 -14 -2 -15 -9 -4 -5 8 -7 21 -4 30 4 13 1 12 -10 -2 -8 -10
-24 -19 -36 -20 -12 -1 -21 -8 -22 -17 0 -8 -5 0 -10 18 -9 30 -39 46 -39 21
0 -17 -32 -38 -57 -39 -18 0 -23 6 -24 28 -1 19 -3 22 -6 7 -2 -11 -16 -29
-30 -39 -23 -17 -26 -17 -20 -3 3 9 2 17 -3 17 -6 0 -10 -4 -10 -10 0 -6 -9
-6 -24 -1 -17 7 -28 5 -42 -7 -17 -16 -17 -16 -5 1 12 15 11 17 -8 17 -13 0
-29 -7 -38 -15 -11 -11 -19 -13 -27 -6 -9 8 -13 6 -14 -4 -1 -8 -3 -22 -4 -30
-1 -9 -7 -14 -15 -11 -8 4 -13 -2 -13 -17 0 -18 -2 -19 -10 -7 -8 13 -10 12
-10 -2 0 -10 -6 -18 -13 -18 -15 0 -42 -48 -38 -67 1 -7 -3 -13 -9 -13 -5 0
-10 -7 -10 -15 0 -8 -4 -15 -8 -15 -5 0 -9 -7 -10 -15 -1 -8 -3 -22 -4 -30 -1
-8 -5 -15 -10 -15 -5 0 -6 -5 -2 -12 4 -7 3 -8 -4 -4 -6 4 -18 -6 -27 -23 -21
-41 -19 -50 10 -57 21 -5 35 3 80 45 78 74 149 104 256 109 80 4 102 0 280
-48 107 -29 216 -64 242 -78 88 -47 154 -138 193 -267 14 -46 18 -91 18 -190
-1 -113 -4 -140 -26 -202 -32 -89 -60 -138 -131 -227 l-56 -70 30 -18 c16 -10
34 -18 39 -18 5 0 40 -15 77 -34 110 -56 207 -92 273 -102 19 -3 42 -10 51
-15 9 -4 19 -6 22 -3 3 3 15 1 26 -6 58 -31 511 -48 656 -25 47 8 94 -15 420
-203 110 -64 236 -131 280 -150 44 -19 82 -36 84 -38 2 -2 -7 -25 -21 -51 -19
-36 -24 -54 -17 -70 4 -13 7 -23 5 -23 -6 0 -102 32 -121 41 -11 5 -33 11 -50
13 -16 2 -31 5 -32 6 -2 2 -6 3 -10 4 -5 1 -14 5 -20 9 -8 5 -13 3 -13 -5 0
-9 -3 -9 -10 2 -6 9 -10 10 -10 3 0 -19 73 -75 143 -111 41 -20 78 -49 101
-77 64 -78 174 -94 346 -51 124 31 248 89 386 181 229 153 357 352 299 465
-17 34 -35 45 -87 54 -46 8 -51 16 -37 53 15 39 37 161 49 273 10 87 27 158
41 170 3 3 21 32 39 65 19 33 37 62 42 63 4 2 8 12 8 23 0 10 5 19 10 19 6 0
10 5 10 10 0 38 -94 -52 -175 -167 -27 -39 -53 -69 -57 -66 -14 8 -9 23 7 23
14 0 20 16 17 52 -1 11 4 15 12 12 9 -3 15 5 19 25 4 17 13 31 20 31 18 0 30
50 51 199 l16 113 75 77 c80 81 211 241 228 279 16 35 26 26 16 -15 -31 -122
-42 -206 -30 -225 9 -14 8 -25 -6 -51 -10 -20 -18 -64 -21 -119 -4 -72 -2 -90
13 -104 13 -14 14 -19 3 -25 -10 -7 -9 -9 5 -9 10 0 15 -4 12 -10 -3 -5 1 -10
9 -10 10 0 13 -6 9 -16 -5 -14 -3 -15 18 -3 13 7 30 12 38 10 7 -1 10 2 7 7
-3 6 6 13 21 17 16 3 31 12 35 18 6 9 8 9 8 0 0 -7 5 -13 11 -13 6 0 8 8 4 19
-3 11 0 23 6 27 7 4 9 3 6 -4 -4 -5 -4 -17 -1 -26 5 -13 9 -12 27 5 13 12 29
17 41 13 14 -3 17 -2 9 3 -10 7 -8 13 7 26 11 9 20 25 20 36 0 10 6 19 13 18
39 -1 49 3 38 16 -8 11 -5 16 14 25 14 6 25 19 25 28 0 10 5 14 16 10 8 -3 12
-2 9 4 -3 6 2 10 12 11 15 0 15 2 -3 9 -22 9 -41 40 -24 40 6 0 10 -5 10 -11
0 -18 64 -6 68 14 3 14 -4 17 -45 17 -74 0 -92 9 -112 51 -18 36 -18 39 -2 39
9 0 22 -5 29 -12 9 -9 12 -9 12 0 0 7 10 12 22 12 17 0 19 3 10 12 -15 15 -16
31 -1 22 21 -12 109 -13 132 0 51 27 107 67 107 75 0 5 -6 12 -12 15 -7 3 -2
5 13 3 19 -3 25 1 27 17 0 11 5 22 11 24 38 13 96 93 118 164 16 50 17 59 14
92 0 8 -19 31 -40 51 -39 37 -63 92 -35 81 20 -8 17 11 -3 23 -17 10 -17 10 1
11 12 0 16 5 12 16 -3 9 -6 20 -6 25 0 6 -4 8 -8 5 -5 -3 -9 1 -9 9 0 8 6 15
14 15 14 0 18 22 6 34 -5 4 -9 12 -9 17 -1 5 -3 10 -4 12 -1 1 -4 15 -6 30 -2
19 3 30 14 35 23 9 27 33 4 26 -16 -5 -16 -5 1 6 13 9 15 15 7 31 -6 11 -16
17 -22 13 -6 -4 -9 -1 -6 7 3 8 15 19 27 25 22 12 22 12 -11 28 -19 10 -34 13
-36 7 -2 -5 -9 -8 -15 -6 -27 10 -37 -9 -25 -47 8 -28 17 -38 37 -41 l26 -4
-26 -2 c-25 -1 -25 -3 -19 -50 4 -29 1 -66 -6 -90 -10 -36 -10 -41 5 -42 13 0
12 -2 -3 -8 -12 -4 -30 -34 -45 -74 -45 -117 -134 -203 -251 -243 -104 -36
-421 -22 -453 20 -5 6 -6 2 -3 -9 3 -11 1 -27 -5 -35 -9 -13 -10 -12 -5 3 22
69 -51 -73 -145 -280 -23 -52 -39 -67 -39 -39 0 7 7 19 16 26 8 8 14 25 12 39
-2 17 4 32 18 43 25 20 35 50 24 69 -12 19 -33 -1 -49 -48 -7 -21 -19 -45 -27
-53 -7 -8 -18 -29 -24 -45 -11 -29 -12 -29 -26 -11 -12 17 -11 21 9 31 16 8
22 19 21 43 -1 21 3 32 12 32 22 0 46 45 38 74 -5 20 -2 26 9 26 21 0 47 39
47 70 0 14 8 30 20 37 10 7 24 21 29 32 10 17 3 25 -53 65 -92 66 -141 121
-183 204 -31 62 -37 86 -41 155 -2 52 2 106 11 147 9 36 14 67 12 69 -2 2 -22
3 -45 3 -28 -1 -40 3 -40 14 0 18 -19 18 -26 0 -7 -17 -93 -13 -128 6 -23 13
-86 28 -126 31 -14 1 -25 7 -25 14 0 7 -7 18 -15 25 -12 11 -12 11 -4 -2 14
-20 12 -45 -3 -44 -28 2 -33 4 -33 15 0 6 7 8 18 4 13 -5 14 -4 5 6 -10 9 -15
10 -27 0 -10 -8 -16 -9 -21 -1 -3 5 -15 10 -26 10 -11 0 -18 4 -15 9 9 14 -28
47 -48 43 -11 -2 -16 0 -12 7 4 6 2 11 -4 11 -7 0 -10 -7 -6 -15 7 -18 4 -18
-28 -4 -14 7 -24 15 -21 18 2 4 -4 7 -14 7 -10 0 -18 -6 -18 -13 0 -7 3 -10 7
-8 4 2 12 -7 19 -21 9 -20 9 -25 -1 -21 -7 2 -12 10 -10 16 1 6 -7 11 -19 11
-11 0 -18 4 -15 9 3 4 -1 17 -9 27 -14 18 -14 18 -15 0 0 -12 -5 -16 -15 -12
-20 7 -19 1 2 -20 17 -17 16 -17 -10 -10 -19 4 -26 3 -22 -4 3 -5 2 -10 -4
-10 -19 0 -22 20 -7 36 21 21 20 25 -6 20 -13 -3 -27 -5 -32 -5 -4 -1 -6 -8
-2 -16 4 -13 2 -14 -14 -5 -14 7 -20 7 -20 0 0 -5 5 -10 12 -10 6 0 8 -3 5 -6
-4 -4 -14 -1 -22 6 -12 10 -19 10 -27 2 -9 -9 -9 -12 0 -12 6 0 9 -7 5 -17 -5
-14 -8 -13 -15 7 -6 17 -4 26 9 36 10 7 23 14 28 14 31 4 44 10 70 34 15 14
22 26 16 26 -7 0 -10 4 -6 9 7 12 -5 19 -27 14z m226 -117 c30 5 34 -7 9 -27
-14 -12 -16 -12 -8 0 5 9 4 12 -3 7 -13 -8 -62 10 -62 24 0 7 6 8 19 1 10 -6
30 -8 45 -5z m-337 -2 c-3 -3 -12 -4 -19 -1 -8 3 -5 6 6 6 11 1 17 -2 13 -5z
m117 -20 c3 -8 2 -12 -4 -9 -6 3 -10 10 -10 16 0 14 7 11 14 -7z m146 -58 c0
-8 9 -38 20 -66 11 -27 22 -65 25 -83 3 -17 21 -91 41 -164 19 -72 41 -164 48
-205 12 -70 13 -72 26 -46 13 28 36 43 45 29 5 -9 -13 -120 -23 -136 -3 -5
-10 1 -14 15 -4 14 -5 -4 -1 -40 5 -59 4 -63 -11 -51 -10 8 -16 29 -16 55 0
23 -4 46 -8 52 -5 5 -14 41 -21 79 -19 106 -23 118 -30 106 -4 -6 -7 5 -8 24
-1 33 -39 132 -48 124 -2 -2 1 -40 6 -84 5 -44 11 -115 13 -157 4 -74 3 -77
-15 -65 -21 13 -24 23 -9 32 17 10 11 63 -7 74 -15 8 -16 12 -5 22 18 19 15
66 -5 78 -14 7 -15 12 -4 24 10 12 9 31 -3 97 -9 45 -16 102 -16 126 0 25 -9
72 -20 105 -11 33 -19 72 -16 87 2 15 5 29 5 32 2 11 51 -50 51 -64z m-207 29
c-7 -21 -12 -19 -10 4 0 11 5 18 9 15 4 -3 5 -11 1 -19z m-64 -6 c-27 -23 -28
-23 -22 -1 2 10 13 19 25 19 19 2 19 1 -3 -18z m-116 -57 c-3 -12 -12 -22 -19
-22 -18 0 -18 6 3 30 20 23 24 22 16 -8z m57 8 c0 -5 -4 -10 -10 -10 -5 0 -10
5 -10 10 0 6 5 10 10 10 6 0 10 -4 10 -10z m-195 -10 c-3 -5 0 -10 7 -10 10 0
10 -2 0 -9 -8 -4 -13 -11 -13 -15 1 -3 -1 -6 -4 -6 -7 0 -7 11 -1 33 2 9 7 17
11 17 3 0 3 -4 0 -10z m95 -20 c0 -5 -4 -10 -10 -10 -5 0 -10 5 -10 10 0 6 5
10 10 10 6 0 10 -4 10 -10z m-130 -30 c0 -5 -2 -10 -4 -10 -3 0 -8 5 -11 10
-3 6 -1 10 4 10 6 0 11 -4 11 -10z m-73 -46 c-3 -3 -12 -4 -19 -1 -8 3 -5 6 6
6 11 1 17 -2 13 -5z m-217 -12 c0 -4 -16 -8 -35 -9 -19 -1 -32 3 -29 8 7 11
64 12 64 1z m-71 -21 c7 -5 12 -13 10 -18 -2 -6 -13 -2 -23 8 -20 19 -12 26
13 10z m-22 -43 c-3 -8 -6 -5 -6 6 -1 11 2 17 5 13 3 -3 4 -12 1 -19z m-307
-18 c0 -5 -2 -10 -4 -10 -3 0 -8 5 -11 10 -3 6 -1 10 4 10 6 0 11 -4 11 -10z
m-20 -21 c0 -6 -4 -7 -10 -4 -5 3 -10 11 -10 16 0 6 5 7 10 4 6 -3 10 -11 10
-16z m92 -26 c7 -9 7 -13 -1 -13 -6 0 -16 10 -21 23 -5 12 -9 16 -9 8 -1 -8
-4 -11 -7 -8 -4 4 -1 14 7 23 13 16 14 16 18 -2 2 -10 8 -25 13 -31z m-52 17
c0 -5 -4 -10 -9 -10 -6 0 -13 5 -16 10 -3 6 1 10 9 10 9 0 16 -4 16 -10z m-55
-90 c3 -5 1 -10 -4 -10 -6 0 -11 5 -11 10 0 6 2 10 4 10 3 0 8 -4 11 -10z
m-240 -90 c3 -6 -1 -7 -9 -4 -18 7 -21 14 -7 14 6 0 13 -4 16 -10z m-735 -99
c0 -5 -7 -12 -16 -15 -14 -5 -15 -4 -4 9 14 17 20 19 20 6z m435 -1 c-3 -5
-12 -10 -18 -10 -7 0 -6 4 3 10 19 12 23 12 15 0z m1053 -14 c3 -13 -1 -17
-14 -14 -11 2 -20 11 -22 22 -3 13 1 17 14 14 11 -2 20 -11 22 -22z m-856 -21
c2 3 5 -2 5 -10 0 -10 -10 -15 -31 -15 -28 1 -29 2 -14 14 10 7 14 17 10 22
-4 4 0 3 9 -4 9 -6 18 -10 21 -7z m-502 -11 c0 -8 -5 -12 -10 -9 -6 4 -8 11
-5 16 9 14 15 11 15 -7z m1428 -57 c5 -24 -15 -21 -28 4 -10 18 -9 20 7 17 10
-2 19 -11 21 -21z m748 -64 c-3 -3 -13 -3 -22 1 -16 6 -15 8 2 25 18 17 19 17
22 -1 2 -11 1 -22 -2 -25z m1774 37 c0 -5 -4 -10 -10 -10 -5 0 -10 5 -10 10 0
6 5 10 10 10 6 0 10 -4 10 -10z m-2450 -56 c0 -17 -22 -14 -28 4 -2 7 3 12 12
12 9 0 16 -7 16 -16z m690 -58 c0 -21 -20 -30 -33 -17 -9 9 -8 14 3 21 21 14
30 12 30 -4z m-612 -24 c2 -7 -3 -12 -12 -12 -9 0 -16 7 -16 16 0 17 22 14 28
-4z m742 -24 c0 -10 -4 -18 -9 -18 -16 0 -23 19 -16 41 6 17 9 19 16 8 5 -8 9
-22 9 -31z m-966 6 c4 -9 4 -19 2 -22 -10 -9 -36 8 -36 23 0 20 26 19 34 -1z
m2457 -52 c-7 -2 -18 1 -23 6 -8 8 -4 9 13 5 13 -4 18 -8 10 -11z m-1621 -12
c0 -11 -7 -20 -15 -20 -27 0 -18 30 13 39 1 1 2 -8 2 -19z m-545 1 c10 -17
-12 -21 -25 -6 -10 12 -10 15 3 15 9 0 18 -4 22 -9z m-237 -40 c3 -16 -1 -22
-10 -19 -7 3 -15 15 -16 27 -3 16 1 22 10 19 7 -3 15 -15 16 -27z m932 -7 c0
-8 -4 -14 -10 -14 -5 0 -10 9 -10 21 0 11 5 17 10 14 6 -3 10 -13 10 -21z
m-630 -44 c0 -5 -4 -10 -10 -10 -5 0 -10 5 -10 10 0 6 5 10 10 10 6 0 10 -4
10 -10z m486 -27 c-11 -11 -19 6 -11 24 8 17 8 17 12 0 3 -10 2 -21 -1 -24z
m-741 -33 c-5 -8 -11 -8 -17 -2 -6 6 -7 16 -3 22 5 8 11 8 17 2 6 -6 7 -16 3
-22z m908 6 c6 -16 -2 -28 -14 -20 -12 7 -11 34 0 34 5 0 11 -6 14 -14z m-583
-36 c0 -5 -4 -10 -10 -10 -5 0 -10 5 -10 10 0 6 5 10 10 10 6 0 10 -4 10 -10z
m426 -1 c3 -6 1 -16 -5 -22 -9 -9 -14 -8 -21 3 -9 15 -4 30 10 30 5 0 12 -5
16 -11z m614 -23 c0 -8 -4 -17 -9 -21 -12 -7 -24 12 -16 25 9 15 25 12 25 -4z
m-1651 -158 c35 -26 72 -48 81 -48 10 0 20 -9 23 -20 7 -27 2 -26 -52 14 -25
18 -57 37 -71 41 -23 7 -24 7 -10 -11 31 -40 75 -84 85 -84 6 0 29 -18 50 -40
21 -22 34 -40 28 -40 -7 0 -15 5 -18 10 -11 18 -23 11 -18 -10 3 -11 3 -20 -1
-20 -5 0 -190 188 -221 224 -5 7 -27 31 -49 53 -26 28 -37 47 -32 58 6 18 42
-4 205 -127z m341 127 c0 -8 -7 -15 -15 -15 -16 0 -20 12 -8 23 11 12 23 8 23
-8z m1380 8 c0 -5 -4 -15 -10 -23 -11 -18 -25 -7 -17 15 6 15 27 21 27 8z
m-500 -34 c0 -5 -4 -9 -10 -9 -5 0 -10 7 -10 16 0 8 5 12 10 9 6 -3 10 -10 10
-16z m-550 -9 c0 -5 -4 -10 -10 -10 -5 0 -10 5 -10 10 0 6 5 10 10 10 6 0 10
-4 10 -10z m363 -10 c3 -11 2 -22 -3 -25 -11 -7 -33 22 -25 35 10 16 22 12 28
-10z m577 -30 c0 -5 -4 -10 -9 -10 -6 0 -13 5 -16 10 -3 6 1 10 9 10 9 0 16
-4 16 -10z m750 -20 c13 -8 13 -10 -2 -10 -9 0 -20 5 -23 10 -8 13 5 13 25 0z
m-1985 -30 c-5 -8 -11 -8 -17 -2 -6 6 -7 16 -3 22 5 8 11 8 17 2 6 -6 7 -16 3
-22z m1301 3 c-10 -10 -19 5 -10 18 6 11 8 11 12 0 2 -7 1 -15 -2 -18z m-916
7 c0 -5 -2 -10 -4 -10 -3 0 -8 5 -11 10 -3 6 -1 10 4 10 6 0 11 -4 11 -10z
m480 -11 c0 -5 -4 -9 -10 -9 -5 0 -10 7 -10 16 0 8 5 12 10 9 6 -3 10 -10 10
-16z m-212 -13 c0 -22 -2 -23 -15 -11 -8 8 -11 19 -8 25 11 18 23 11 23 -14z
m542 -40 c0 -3 -4 -8 -10 -11 -5 -3 -10 -1 -10 4 0 6 5 11 10 11 6 0 10 -2 10
-4z m-1139 -39 c-13 -13 -26 -3 -16 12 3 6 11 8 17 5 6 -4 6 -10 -1 -17z m508
-29 c11 -24 22 -54 26 -68 7 -23 6 -24 -9 -11 -14 12 -19 12 -26 2 -11 -19
-26 11 -33 72 -5 38 -4 47 9 47 8 0 23 -19 33 -42z m321 22 c0 -5 -5 -10 -11
-10 -5 0 -7 5 -4 10 3 6 8 10 11 10 2 0 4 -4 4 -10z m400 1 c0 -6 -4 -13 -10
-16 -5 -3 -10 1 -10 9 0 9 5 16 10 16 6 0 10 -4 10 -9z m-1480 -11 c0 -17 -22
-22 -36 -8 -12 12 -10 14 11 16 14 1 25 -2 25 -8z m844 -11 c-3 -5 -10 -7 -15
-3 -5 3 -7 10 -3 15 3 5 10 7 15 3 5 -3 7 -10 3 -15z m505 -53 c-4 -25 -17
-81 -29 -127 -24 -98 -25 -113 -5 -106 12 5 13 -6 10 -66 -2 -40 -4 -108 -4
-151 -1 -48 -5 -76 -10 -70 -5 5 -11 18 -13 28 -3 18 -4 18 -19 3 -16 -15 -17
-15 -17 6 0 28 -6 55 -15 63 -4 4 -7 2 -7 -5 0 -7 -11 -40 -24 -74 -13 -34
-27 -71 -30 -81 -5 -15 -9 -17 -19 -7 -9 9 -9 14 2 20 8 5 11 16 8 25 -3 8 -2
18 4 22 5 3 7 14 4 25 -4 11 -2 19 4 19 6 0 11 7 11 15 0 8 -5 15 -11 15 -8 0
-7 5 2 16 21 25 21 79 -1 197 -12 62 -23 119 -26 128 -3 12 21 35 88 82 51 36
96 66 99 66 4 1 3 -19 -2 -43z m-1282 -2 c-3 -4 -14 -3 -24 0 -15 6 -15 8 -3
16 16 10 39 -4 27 -16z m223 -30 c0 -8 -4 -12 -10 -9 -5 3 -10 10 -10 16 0 5
5 9 10 9 6 0 10 -7 10 -16z m-742 -30 c48 -20 108 -47 134 -61 25 -14 51 -23
56 -19 5 3 17 -6 27 -20 13 -20 23 -25 42 -21 19 3 26 -1 33 -19 10 -24 17
-28 58 -24 19 1 23 -3 20 -22 -2 -18 -8 -22 -28 -20 -14 2 -26 8 -28 13 -2 5
-9 9 -17 9 -7 0 -46 18 -87 40 -43 22 -94 41 -119 44 -27 3 -79 23 -134 52
-90 48 -108 61 -99 76 10 16 58 7 142 -28z m592 21 c0 -17 -2 -18 -25 -9 -13
5 -14 8 -3 15 19 13 28 11 28 -6z m710 1 c0 -3 -4 -8 -10 -11 -5 -3 -10 -1
-10 4 0 6 5 11 10 11 6 0 10 -2 10 -4z m610 -6 c0 -5 -5 -10 -11 -10 -5 0 -7
5 -4 10 3 6 8 10 11 10 2 0 4 -4 4 -10z m-1250 -46 c0 -17 -22 -14 -28 4 -2 7
3 12 12 12 9 0 16 -7 16 -16z m70 -44 c0 -5 -7 -10 -15 -10 -8 0 -15 5 -15 10
0 6 7 10 15 10 8 0 15 -4 15 -10z m70 6 c0 -3 -4 -8 -10 -11 -5 -3 -10 -1 -10
4 0 6 5 11 10 11 6 0 10 -2 10 -4z m-700 -56 c26 -26 9 -26 -21 0 -13 10 -18
19 -11 20 6 0 21 -9 32 -20z m700 6 c0 -3 -4 -8 -10 -11 -5 -3 -10 -1 -10 4 0
6 5 11 10 11 6 0 10 -2 10 -4z m-358 -111 c6 -29 7 -29 -27 -13 -27 12 -32 24
-12 31 25 11 35 6 39 -18z m-672 -61 c105 -59 198 -97 225 -91 14 2 27 -3 34
-16 10 -16 20 -18 52 -13 30 5 39 3 39 -8 0 -21 38 -30 57 -14 13 11 18 9 31
-10 15 -23 46 -30 57 -12 10 16 22 12 28 -11 5 -20 3 -20 -61 -13 -37 3 -75
10 -84 15 -10 5 -19 5 -22 0 -9 -14 4 -40 18 -35 7 3 25 -5 40 -17 40 -31 18
-46 -30 -20 -21 12 -46 21 -54 21 -9 0 -21 5 -26 10 -6 6 -50 24 -99 41 -102
34 -132 51 -230 128 -75 59 -86 71 -79 83 9 13 19 10 104 -38z m740 22 c0 -8
-5 -18 -11 -22 -14 -8 -33 11 -25 25 10 16 36 13 36 -3z m73 -57 c5 -18 2 -20
-19 -15 -18 5 -24 2 -25 -11 0 -16 -2 -15 -9 2 -12 28 -12 37 0 30 6 -3 10 -1
10 4 0 20 38 11 43 -10z m102 -66 c2 -27 0 -31 -14 -23 -9 5 -26 20 -38 33
l-22 24 36 -1 c33 -1 36 -4 38 -33z m76 -36 c-1 -12 -15 -9 -19 4 -3 6 1 10 8
8 6 -3 11 -8 11 -12z m-381 -57 c0 -19 -20 -27 -33 -13 -8 7 11 33 24 33 5 0
9 -9 9 -20z m460 0 c0 -5 -4 -10 -9 -10 -6 0 -13 5 -16 10 -3 6 1 10 9 10 9 0
16 -4 16 -10z m-380 -25 c0 -8 -7 -15 -15 -15 -16 0 -20 12 -8 23 11 12 23 8
23 -8z m80 -35 c0 -5 -4 -10 -10 -10 -5 0 -10 5 -10 10 0 6 5 10 10 10 6 0 10
-4 10 -10z m1080 -10 c0 -5 -4 -10 -9 -10 -6 0 -13 5 -16 10 -3 6 1 10 9 10 9
0 16 -4 16 -10z m-1330 -15 c0 -8 -7 -15 -15 -15 -8 0 -15 7 -15 15 0 8 7 15
15 15 8 0 15 -7 15 -15z m90 -35 c0 -5 -6 -10 -14 -10 -8 0 -18 5 -21 10 -3 6
3 10 14 10 12 0 21 -4 21 -10z m1220 0 c0 -5 -2 -10 -4 -10 -3 0 -8 5 -11 10
-3 6 -1 10 4 10 6 0 11 -4 11 -10z m-1140 -30 c0 -5 -7 -10 -16 -10 -8 0 -12
5 -9 10 3 6 10 10 16 10 5 0 9 -4 9 -10z m80 -50 c0 -5 -4 -10 -10 -10 -5 0
-10 5 -10 10 0 6 5 10 10 10 6 0 10 -4 10 -10z m510 -465 c0 -8 -4 -15 -9 -15
-13 0 -22 16 -14 24 11 11 23 6 23 -9z"/>
<path d="M4855 3871 c-3 -6 -3 -10 2 -9 4 1 30 -8 57 -20 58 -26 56 -26 56 -7
0 10 -10 15 -30 15 -16 0 -30 5 -30 11 0 6 -6 9 -14 6 -7 -3 -18 -1 -24 5 -6
6 -12 6 -17 -1z"/>
<path d="M5830 5965 c0 -5 5 -17 10 -25 5 -8 10 -10 10 -5 0 6 -5 17 -10 25
-5 8 -10 11 -10 5z"/>
<path d="M5726 5951 c-12 -5 -15 -10 -9 -14 6 -4 16 0 23 8 14 17 13 17 -14 6z"/>
<path d="M5999 5958 c-1 -2 -3 -13 -4 -25 -2 -19 1 -21 16 -12 23 12 25 39 4
39 -8 0 -16 -1 -16 -2z"/>
<path d="M5650 5935 c0 -8 12 -21 28 -29 15 -8 23 -15 17 -16 -14 0 44 -30 59
-30 6 0 4 5 -4 10 -9 6 -11 10 -3 10 7 0 10 7 7 15 -4 9 -11 15 -18 14 -32 -4
-56 3 -56 15 0 8 -7 16 -15 20 -9 3 -15 0 -15 -9z"/>
<path d="M6077 5938 c-16 -12 -15 -13 7 -13 15 0 22 5 19 13 -3 6 -6 12 -7 12
-1 0 -10 -6 -19 -12z"/>
<path d="M7657 5898 c-18 -32 -18 -33 0 -48 22 -19 51 -60 83 -117 13 -24 30
-43 37 -43 8 0 11 5 7 12 -5 8 0 9 14 6 12 -4 24 -3 27 2 2 4 17 5 32 3 16 -3
24 -1 18 4 -28 23 -36 42 -26 61 9 17 7 22 -20 31 -24 8 -29 15 -24 31 8 24 5
24 -43 5 l-37 -15 25 20 c25 20 22 23 -15 21 -11 0 -29 11 -39 26 -11 14 -14
23 -8 19 7 -4 12 -2 12 3 0 22 -26 10 -43 -21z m43 -32 c0 -3 -4 -8 -10 -11
-5 -3 -10 -1 -10 4 0 6 5 11 10 11 6 0 10 -2 10 -4z"/>
<path d="M7710 5913 c1 -19 18 -33 33 -27 10 3 24 1 31 -5 12 -10 13 -8 9 8
-3 13 -10 18 -21 14 -10 -4 -13 -2 -8 5 5 8 -1 12 -18 12 -14 0 -26 -3 -26 -7z"/>
<path d="M6110 5900 c0 -5 5 -10 10 -10 6 0 10 5 10 10 0 6 -4 10 -10 10 -5 0
-10 -4 -10 -10z"/>
<path d="M5351 5856 c-11 -14 18 -78 39 -84 11 -4 11 -1 -2 12 -10 9 -15 23
-12 30 3 7 -2 16 -11 20 -9 3 -13 10 -10 16 4 6 10 8 15 5 5 -3 11 -2 14 3 8
13 -23 11 -33 -2z"/>
<path d="M6227 5854 c6 -15 23 -19 23 -5 0 5 -7 11 -14 14 -10 4 -13 1 -9 -9z"/>
<path d="M5396 5838 c3 -4 9 -8 15 -8 5 0 9 4 9 8 0 5 -7 9 -15 9 -8 0 -12 -4
-9 -9z"/>
<path d="M7810 5830 c0 -5 4 -10 9 -10 6 0 13 5 16 10 3 6 -1 10 -9 10 -9 0
-16 -4 -16 -10z"/>
<path d="M5286 5813 c5 -5 12 -12 16 -18 4 -6 8 -2 8 8 0 9 -7 17 -17 17 -9 0
-12 -3 -7 -7z"/>
<path d="M5260 5771 c0 -6 5 -13 10 -16 6 -3 10 1 10 9 0 9 -4 16 -10 16 -5 0
-10 -4 -10 -9z"/>
<path d="M5120 5766 c0 -2 7 -6 15 -10 8 -3 15 -1 15 4 0 6 -7 10 -15 10 -8 0
-15 -2 -15 -4z"/>
<path d="M5490 5750 c0 -5 5 -10 11 -10 5 0 7 5 4 10 -3 6 -8 10 -11 10 -2 0
-4 -4 -4 -10z"/>
<path d="M4950 5740 c0 -5 5 -10 11 -10 5 0 7 5 4 10 -3 6 -8 10 -11 10 -2 0
-4 -4 -4 -10z"/>
<path d="M5205 5740 c3 -5 11 -10 16 -10 6 0 7 5 4 10 -3 6 -11 10 -16 10 -6
0 -7 -4 -4 -10z"/>
<path d="M5306 5723 c-11 -11 -6 -23 9 -23 8 0 15 4 15 9 0 13 -16 22 -24 14z"/>
<path d="M5045 5690 c-3 -5 1 -10 10 -10 9 0 13 5 10 10 -3 6 -8 10 -10 10 -2
0 -7 -4 -10 -10z"/>
<path d="M5106 5653 c-6 -14 -5 -15 5 -6 7 7 10 15 7 18 -3 3 -9 -2 -12 -12z"/>
<path d="M5037 5654 c-9 -10 2 -24 18 -24 9 0 12 6 9 15 -6 16 -17 19 -27 9z"/>
<path d="M4700 5616 c0 -2 7 -7 16 -10 8 -3 12 -2 9 4 -6 10 -25 14 -25 6z"/>
<path d="M4735 5550 c4 -6 11 -8 16 -5 14 9 11 15 -7 15 -8 0 -12 -5 -9 -10z"/>
<path d="M7860 5520 c0 -5 7 -7 15 -4 8 4 15 8 15 10 0 2 -7 4 -15 4 -8 0 -15
-4 -15 -10z"/>
<path d="M4510 5469 c0 -5 5 -7 10 -4 6 3 10 8 10 11 0 2 -4 4 -10 4 -5 0 -10
-5 -10 -11z"/>
<path d="M4580 5456 c0 -8 -6 -16 -12 -19 -7 -2 -10 -8 -6 -11 3 -4 15 1 26
12 17 17 18 22 6 26 -8 3 -14 -1 -14 -8z"/>
<path d="M4503 5437 c3 -9 1 -19 -5 -23 -9 -6 7 -23 22 -24 12 0 2 54 -10 58
-9 3 -11 -1 -7 -11z"/>
<path d="M4437 5425 c2 -7 13 -11 24 -8 25 7 24 10 -5 15 -16 3 -23 1 -19 -7z"/>
<path d="M4555 5399 c-22 -8 -21 -9 13 -13 12 -2 22 1 22 5 0 13 -14 17 -35 8z"/>
<path d="M4160 5380 c0 -5 5 -10 11 -10 5 0 7 5 4 10 -3 6 -8 10 -11 10 -2 0
-4 -4 -4 -10z"/>
<path d="M6932 4977 c-12 -21 -17 -37 -12 -37 14 0 43 47 38 61 -2 7 -14 -4
-26 -24z"/>
<path d="M12422 4770 c0 -14 2 -19 5 -12 2 6 2 18 0 25 -3 6 -5 1 -5 -13z"/>
<path d="M12416 4575 c-3 -8 -1 -15 4 -15 6 0 10 7 10 15 0 8 -2 15 -4 15 -2
0 -6 -7 -10 -15z"/>
<path d="M12410 4519 c0 -5 5 -7 10 -4 6 3 10 8 10 11 0 2 -4 4 -10 4 -5 0
-10 -5 -10 -11z"/>
<path d="M12405 4456 c0 -37 15 -44 15 -8 0 18 -4 32 -8 32 -4 0 -8 -11 -7
-24z"/>
<path d="M12386 4330 c-5 -25 -10 -52 -11 -60 -1 -8 -7 -35 -13 -59 -6 -24 -7
-39 -2 -35 12 14 42 150 38 175 -3 17 -6 11 -12 -21z"/>
<path d="M3936 4304 c-5 -14 -9 -14 -23 -3 -10 9 -14 9 -10 2 10 -15 -18 -29
-63 -32 -39 -2 -57 -21 -35 -37 24 -18 16 -74 -11 -74 -12 0 -19 -21 -11 -34
1 -2 -11 -14 -26 -26 -15 -12 -34 -36 -42 -54 -9 -20 -14 -25 -14 -13 -1 24
-21 11 -21 -14 0 -10 -5 -19 -11 -19 -5 0 -7 -4 -4 -10 3 -5 1 -10 -4 -10 -6
0 -11 -6 -11 -13 0 -8 -10 -19 -22 -25 -13 -6 -17 -11 -9 -11 9 -1 0 -14 -21
-33 -19 -18 -44 -49 -54 -68 -11 -19 -25 -39 -32 -43 -10 -7 -10 -12 -1 -23
10 -12 9 -13 -4 -9 -8 4 -18 2 -22 -4 -3 -6 -1 -11 6 -11 8 0 8 -4 -1 -15 -7
-9 -19 -14 -27 -11 -8 3 -11 1 -8 -4 8 -13 -30 -67 -72 -103 -18 -16 -33 -37
-33 -46 0 -14 -6 -17 -23 -14 -32 6 -79 -41 -71 -71 3 -14 -1 -28 -10 -35 -13
-11 -16 -11 -16 3 0 31 -30 8 -34 -26 -1 -4 -10 -13 -20 -21 -19 -14 -14 -43
5 -31 5 3 7 10 4 15 -4 5 1 9 9 9 9 0 16 -8 16 -19 0 -22 20 -32 52 -26 13 3
38 8 56 11 17 3 32 11 32 16 0 11 19 31 40 41 40 20 59 34 53 40 -3 4 -15 -1
-26 -10 -19 -17 -19 -17 -16 2 4 20 7 21 53 24 17 1 26 8 28 24 2 17 8 21 28
19 14 -2 21 0 17 5 -5 4 -14 8 -20 8 -19 0 -14 28 5 31 24 3 61 40 54 53 -4 6
4 13 19 17 14 3 25 12 25 20 0 8 5 14 11 14 6 0 9 7 5 15 -3 8 -1 14 3 12 5
-1 10 3 12 8 5 16 23 33 32 28 4 -2 7 3 7 11 0 9 4 16 8 16 4 0 21 22 37 49
15 27 37 52 48 55 11 2 16 9 12 16 -4 6 5 20 19 31 14 11 26 26 26 34 0 7 4
15 10 17 5 2 11 15 12 31 1 15 6 27 10 27 4 0 5 7 1 15 -3 10 -1 15 8 13 8 -2
15 13 20 41 5 24 11 47 15 50 4 3 4 -6 0 -21 -3 -16 -2 -28 3 -28 15 0 22 30
11 50 -13 25 -13 30 4 24 8 -3 17 0 22 7 4 8 3 10 -4 5 -7 -4 -12 -3 -12 2 0
6 -10 8 -22 5 -23 -6 -23 -6 1 16 21 18 27 19 40 8 17 -15 51 -12 51 4 0 6 -4
7 -10 4 -5 -3 -10 0 -10 8 0 8 -6 20 -14 26 -8 7 -12 21 -9 31 3 13 0 20 -8
20 -12 0 -12 2 0 9 8 5 9 11 3 15 -5 3 -13 -1 -16 -10z m-90 -99 c-3 -10 1
-15 12 -15 12 0 10 -4 -8 -13 -14 -8 -26 -13 -28 -12 -5 4 17 55 24 55 3 0 4
-7 0 -15z m-136 -405 c0 -5 -5 -10 -11 -10 -5 0 -7 5 -4 10 3 6 8 10 11 10 2
0 4 -4 4 -10z m-230 -266 c0 -8 -5 -12 -10 -9 -6 4 -8 11 -5 16 9 14 15 11 15
-7z"/>
<path d="M3727 4186 c4 -21 0 -28 -21 -36 -14 -5 -26 -12 -26 -15 0 -4 6 -3
13 1 9 5 9 3 -1 -7 -7 -8 -20 -14 -29 -14 -9 0 -23 -12 -32 -26 -30 -49 -56
-84 -71 -96 -11 -10 -12 -15 -3 -21 9 -6 4 -13 -17 -26 -17 -9 -30 -25 -30
-36 0 -12 -6 -17 -17 -14 -11 3 -23 -3 -31 -16 -7 -11 -9 -20 -5 -19 23 4 33
-3 33 -23 0 -20 -1 -20 -19 -4 -18 16 -20 16 -42 -7 -36 -38 -59 -70 -54 -75
2 -3 11 1 20 8 9 7 18 10 22 6 3 -3 2 -6 -3 -6 -5 0 -11 -12 -12 -27 l-2 -28
22 30 c13 16 42 49 66 73 23 24 42 49 42 55 0 5 21 35 47 66 63 74 56 65 119
151 54 73 67 118 38 127 -7 2 -10 -6 -7 -21z"/>
<path d="M12340 4135 c0 -14 2 -25 4 -25 2 0 6 11 8 25 3 14 1 25 -3 25 -5 0
-9 -11 -9 -25z"/>
<path d="M12301 4028 c-11 -34 -19 -63 -17 -65 2 -3 12 20 21 49 10 29 22 59
28 66 6 8 6 12 -1 12 -6 0 -20 -28 -31 -62z"/>
<path d="M12267 3943 c-4 -3 -7 -13 -7 -22 1 -13 3 -13 11 2 11 19 8 33 -4 20z"/>
<path d="M12236 3863 c-6 -14 -5 -15 5 -6 7 7 10 15 7 18 -3 3 -9 -2 -12 -12z"/>
<path d="M3337 3708 c-15 -18 -25 -38 -22 -45 2 -7 -3 -13 -13 -13 -16 -1 -16
-2 1 -14 14 -11 15 -15 5 -19 -9 -4 -9 -6 2 -6 23 -1 72 69 59 85 -7 8 -7 14
1 19 12 7 14 25 3 25 -5 0 -20 -15 -36 -32z m9 -25 c-2 -16 -5 -30 -5 -32 -1
-3 -6 0 -12 6 -8 8 -7 17 3 32 17 28 20 27 14 -6z"/>
<path d="M12165 3710 c-3 -5 -1 -10 4 -10 6 0 11 5 11 10 0 6 -2 10 -4 10 -3
0 -8 -4 -11 -10z"/>
<path d="M3255 3580 c-2 -3 0 -11 4 -18 5 -9 12 -7 25 7 18 19 17 20 -4 18
-12 -1 -23 -4 -25 -7z"/>
<path d="M3230 3519 c0 -5 5 -7 10 -4 6 3 10 8 10 11 0 2 -4 4 -10 4 -5 0 -10
-5 -10 -11z"/>
<path d="M3490 3494 c0 -8 5 -12 10 -9 6 4 8 11 5 16 -9 14 -15 11 -15 -7z"/>
<path d="M12575 3270 c-3 -6 1 -7 9 -4 18 7 21 14 7 14 -6 0 -13 -4 -16 -10z"/>
<path d="M12693 3243 c-10 -11 -61 -52 -113 -93 -52 -40 -106 -84 -120 -97
-14 -13 -52 -43 -85 -68 -117 -86 -195 -148 -195 -154 0 -4 -15 -12 -34 -19
-18 -7 -41 -21 -51 -32 -16 -17 -17 -26 -6 -77 6 -31 11 -71 11 -89 0 -18 4
-35 8 -38 5 -3 71 45 148 107 77 62 224 179 327 261 102 82 189 157 192 167
12 37 8 78 -12 110 -23 40 -45 47 -70 22z"/>
<path d="M12520 3232 c-8 -10 -85 -71 -170 -135 -311 -236 -340 -262 -297
-262 12 0 84 54 127 95 9 9 33 29 55 45 22 17 46 37 55 45 9 8 35 31 59 50 24
19 62 52 85 72 23 21 44 38 47 38 7 0 69 58 69 65 0 11 -16 4 -30 -13z"/>
<path d="M11100 3220 c0 -5 5 -10 11 -10 5 0 7 5 4 10 -3 6 -8 10 -11 10 -2 0
-4 -4 -4 -10z"/>
<path d="M10650 3118 c-200 -116 -365 -316 -421 -510 -12 -43 -2 -33 27 25 80
160 228 332 362 420 49 32 72 54 72 67 0 11 -1 20 -2 19 -2 0 -19 -10 -38 -21z"/>
<path d="M10217 2553 c-4 -3 -7 -13 -7 -22 1 -13 3 -13 11 2 11 19 8 33 -4 20z"/>
<path d="M11575 2413 c-10 -27 -27 -61 -37 -78 -20 -33 -22 -45 -9 -45 8 0 53
99 66 148 11 39 -2 24 -20 -25z"/>
<path d="M4596 2312 c-8 -13 8 -30 38 -41 43 -17 51 -1 12 25 -38 26 -43 28
-50 16z"/>
<path d="M11474 2233 c-53 -71 -129 -145 -194 -191 -36 -25 -67 -47 -69 -49
-3 -2 0 -8 6 -14 16 -16 183 104 183 131 0 6 6 10 13 10 7 0 26 18 43 41 16
22 39 53 51 68 20 26 21 41 3 41 -4 0 -20 -17 -36 -37z"/>
<path d="M3554 2069 c-38 -11 -66 -39 -40 -39 9 0 16 -4 16 -10 0 -5 6 -10 14
-10 19 0 66 -39 66 -55 0 -8 -6 -12 -12 -10 -16 6 -51 -23 -62 -50 -4 -11 -10
-38 -13 -60 -3 -22 -10 -43 -15 -46 -6 -4 -7 -12 -3 -19 5 -9 4 -11 -4 -6 -6
4 -14 0 -17 -8 -3 -9 -11 -13 -18 -10 -6 3 1 -6 17 -20 71 -66 187 -55 262 24
27 28 30 38 33 108 3 70 0 82 -27 128 -42 71 -123 106 -197 83z m176 -200 c0
-16 -2 -29 -4 -29 -2 0 -11 -3 -19 -6 -18 -6 -30 45 -15 63 16 19 38 3 38 -28z"/>
<path d="M11117 1944 c-27 -14 -47 -27 -45 -29 7 -7 118 37 118 46 0 15 -23 9
-73 -17z"/>
<path d="M11030 1900 c-8 -5 -11 -12 -7 -16 4 -4 13 -2 19 4 15 15 7 24 -12
12z"/>
<path d="M10373 1544 c-15 -6 -63 -44 -105 -84 -57 -53 -78 -78 -78 -97 0 -16
7 -27 19 -30 22 -6 25 -43 4 -43 -7 0 -13 -5 -13 -11 0 -5 6 -7 13 -4 6 4 5 0
-3 -7 -13 -12 -40 -52 -40 -61 0 -8 86 7 92 17 5 7 8 5 8 -6 0 -10 -4 -18 -10
-18 -5 0 -10 -6 -10 -14 0 -7 -28 -37 -62 -67 -35 -30 -64 -57 -66 -61 -2 -5
-8 -8 -13 -8 -5 0 -22 -12 -37 -27 -15 -16 -39 -36 -54 -46 -16 -9 -28 -24
-28 -32 0 -21 -19 -19 -26 3 -11 36 -22 47 -48 48 -25 1 -27 -2 -21 -25 4 -14
11 -28 16 -32 5 -3 1 -22 -9 -43 -16 -33 -20 -35 -32 -22 -9 12 -16 13 -25 6
-9 -8 -14 -7 -17 1 -2 6 -12 10 -23 8 -18 -4 -18 -5 -1 -21 9 -10 35 -23 57
-29 33 -10 45 -10 72 3 18 9 165 121 326 249 162 129 316 251 343 272 l49 39
87 -16 c109 -20 196 -20 328 -1 129 20 266 63 354 114 8 5 28 14 44 20 52 21
21 21 -97 1 -109 -19 -119 -19 -157 -4 -22 9 -40 22 -40 29 0 16 -51 13 -95
-6 -65 -27 -311 -42 -325 -19 -4 7 -13 9 -20 5 -10 -6 -9 -10 4 -17 9 -5 16
-13 16 -17 0 -12 -39 -8 -48 4 -8 13 -52 17 -52 6 0 -14 -61 -22 -78 -10 -14
8 -12 9 11 6 17 -3 27 0 27 8 0 7 -18 12 -46 13 -25 1 -61 9 -81 17 -19 8 -39
12 -44 9 -5 -3 -9 -1 -9 4 0 12 -24 11 -57 -4z m-143 -298 c0 -3 -4 -8 -10
-11 -5 -3 -10 -1 -10 4 0 6 5 11 10 11 6 0 10 -2 10 -4z"/>
<path d="M9428 1413 c7 -3 16 -2 19 1 4 3 -2 6 -13 5 -11 0 -14 -3 -6 -6z"/>
<path d="M7243 1101 c-18 -15 -33 -33 -33 -39 0 -7 -8 -12 -17 -12 -13 0 -14
-3 -5 -12 10 -10 24 -1 65 40 54 54 46 72 -10 23z"/>
<path d="M7399 1095 c-6 -16 -12 -70 -12 -120 -1 -137 39 -207 148 -262 27
-14 73 -43 102 -64 29 -21 54 -39 56 -39 2 0 1 41 -1 90 -3 54 -1 90 5 90 6 0
43 -23 83 -51 40 -28 93 -60 119 -72 64 -28 151 -27 231 3 66 25 135 82 126
106 -3 7 2 20 10 29 9 8 11 15 5 15 -8 0 -7 6 1 19 6 10 17 17 23 14 7 -2 15
3 18 11 4 9 2 16 -3 16 -6 0 -10 -6 -10 -12 0 -9 -4 -8 -10 2 -7 11 -10 11
-10 2 0 -7 -4 -11 -8 -8 -4 2 -14 1 -21 -3 -10 -7 -11 -13 -2 -30 16 -28 -9
-25 -26 4 -9 16 -8 23 4 38 9 9 13 20 10 23 -10 10 -38 -17 -36 -35 2 -28 -1
-36 -9 -24 -7 10 -12 10 -27 -1 -17 -12 -17 -16 -5 -31 12 -14 12 -18 0 -25
-20 -12 -34 14 -20 39 17 33 12 42 -17 35 -44 -10 -48 -10 -45 4 1 8 -2 11 -7
8 -11 -7 -41 3 -41 14 0 5 10 6 23 3 18 -4 19 -3 7 6 -13 9 -12 11 6 11 21 0
54 28 54 46 0 5 -4 3 -9 -5 -5 -7 -25 -15 -45 -17 -33 -2 -36 0 -31 19 5 19 5
20 -5 4 -6 -9 -16 -15 -22 -11 -6 4 -6 -1 1 -15 10 -17 9 -20 -4 -15 -8 4 -15
1 -15 -6 0 -6 -4 -8 -10 -5 -5 3 -10 1 -10 -4 0 -6 6 -12 13 -12 27 -3 33 -4
52 -16 17 -10 17 -13 5 -28 -13 -15 -15 -15 -22 6 -8 21 -9 21 -31 3 -12 -10
-16 -12 -9 -4 6 8 12 18 12 22 0 12 -77 -3 -119 -23 -26 -12 -38 -14 -43 -6
-6 9 -8 8 -8 -1 0 -7 -4 -11 -9 -7 -5 3 -12 1 -15 -4 -9 -15 -141 26 -208 65
-90 53 -133 102 -157 177 l-19 62 -13 -30z m611 -260 c0 -8 -4 -15 -10 -15 -5
0 -7 7 -4 15 4 8 8 15 10 15 2 0 4 -7 4 -15z m110 -5 c0 -5 -7 -10 -15 -10 -8
0 -15 5 -15 10 0 6 7 10 15 10 8 0 15 -4 15 -10z m-50 -20 c0 -5 -2 -10 -4
-10 -3 0 -8 5 -11 10 -3 6 -1 10 4 10 6 0 11 -4 11 -10z m150 -55 c0 -8 -4
-17 -10 -20 -6 -3 -9 4 -8 19 2 25 18 26 18 1z"/>
<path d="M8097 989 c-28 -16 -10 -29 31 -23 42 7 55 14 26 14 -11 0 -24 4 -29
9 -6 6 -17 6 -28 0z"/>
<path d="M7943 930 c-22 -17 -21 -30 3 -30 10 0 28 39 21 46 -1 1 -12 -6 -24
-16z"/>
<path d="M8126 900 c9 -33 9 -34 31 -22 17 10 17 11 -2 18 -11 4 -24 12 -28
18 -5 6 -5 0 -1 -14z"/>
<path d="M8290 790 c0 -5 5 -10 11 -10 5 0 7 5 4 10 -3 6 -8 10 -11 10 -2 0
-4 -4 -4 -10z"/>
</g>
</svg>
